<svg width="32" height="32" viewBox="0 0 32 32" fill="none" xmlns="http://www.w3.org/2000/svg">
<path d="M5 5V6V27H27V5H5ZM7 7H25V25H7V7ZM11.7051 11L9 19.5605V21H11V20H14V21H16V19.5605L13.2949 11H11.7051ZM20.0039 13C18.6681 12.9953 17.6721 13.8694 17.3203 14.752C16.9685 15.6345 17 16.5013 17 17C17 17.5417 17.0097 18.4018 17.377 19.2656C17.7442 20.1294 18.7054 20.9986 19.998 21C21.5002 21.002 22.0039 21 22.0039 21L21.9961 19C21.9961 19 21.5018 19.002 20.002 19C19.4196 18.9994 19.3808 18.8681 19.2168 18.4824C19.1634 18.3569 19.1784 18.1642 19.1465 18H22L23 17.0039C23 17.0039 23.0168 16.128 22.7051 15.1875C22.5492 14.7172 22.3085 14.2025 21.8691 13.7637C21.4298 13.3249 20.7551 13.0026 20.0039 13ZM19.9961 15C20.2519 15.0009 20.3306 15.0553 20.4551 15.1797C20.5796 15.304 20.7142 15.5375 20.8066 15.8164C20.8354 15.9031 20.815 15.9128 20.8359 16H19.1172C19.1435 15.8303 19.1282 15.6165 19.1777 15.4922C19.3249 15.123 19.3279 14.9977 19.9961 15ZM12.5 15.1211L13.4102 18H11.5898L12.5 15.1211Z" fill="#00AB42"/>
</svg>
