<svg width="32" height="32" viewBox="0 0 32 32" fill="none" xmlns="http://www.w3.org/2000/svg">
<path d="M11.6667 29.6663C9.08933 29.6663 7 27.577 7 24.9997C7 22.4223 9.08933 20.333 11.6667 20.333H16.3333V24.9997C16.3333 27.577 14.244 29.6663 11.6667 29.6663Z" stroke="#00AB42" stroke-miterlimit="10" stroke-linecap="round" stroke-linejoin="round"/>
<path d="M21.6654 21.3337C24.0586 21.3337 25.9987 19.3936 25.9987 17.0003C25.9987 14.6071 24.0586 12.667 21.6654 12.667C19.2721 12.667 17.332 14.6071 17.332 17.0003C17.332 19.3936 19.2721 21.3337 21.6654 21.3337Z" fill="#00AB42"/>
<path d="M21.332 11.6667C23.7254 11.6667 25.6654 9.72667 25.6654 7.33333C25.6654 4.94 23.7254 3 21.332 3H16.332V11.6667H21.332Z" stroke="#00AB42" stroke-miterlimit="10" stroke-linecap="round" stroke-linejoin="round"/>
<path d="M11.3333 3C8.94 3 7 4.94 7 7.33333C7 9.72667 8.94 11.6667 11.3333 11.6667H16.3333V3H11.3333Z" stroke="#00AB42" stroke-miterlimit="10" stroke-linecap="round" stroke-linejoin="round"/>
<path d="M11.3333 11.667C8.94 11.667 7 13.607 7 16.0003C7 18.3937 8.94 20.3337 11.3333 20.3337H16.3333V11.667H11.3333Z" stroke="#00AB42" stroke-miterlimit="10" stroke-linecap="round" stroke-linejoin="round"/>
</svg>
