<svg width="32" height="32" viewBox="0 0 32 32" fill="none" xmlns="http://www.w3.org/2000/svg">
<path d="M20.226 19.8458C19.978 19.8458 19.234 19.7218 19.234 18.7298H17.25C17.25 19.9698 18.242 21.3338 20.2273 21.3338C21.2193 21.3338 23.0807 20.9618 23.0807 19.1018C23.0807 16.3725 19.4833 16.7458 19.4833 15.5045C19.4833 15.0085 19.8553 14.7605 20.2273 14.7605C20.7233 14.7605 20.9713 15.1325 20.9713 15.7525H23.0793C23.0793 14.3885 22.0873 13.2725 20.226 13.2725C19.234 13.2725 17.4967 13.7685 17.4967 15.6285C17.4967 18.1085 21.094 17.9845 21.094 19.1018C21.094 19.5978 20.722 19.8458 20.226 19.8458Z" fill="#00AB42"/>
<path d="M11.564 17.4883H13.052C14.664 17.4883 16.4014 16.6203 16.4014 14.139C16.4014 13.5203 16.0294 10.667 12.9294 10.667H9.33203V21.2097H11.564V17.4883ZM11.564 12.403H13.052C13.92 12.403 14.292 13.271 14.292 14.139C14.292 15.007 14.044 15.751 13.052 15.751H11.564V12.403Z" fill="#00AB42"/>
<path d="M25.3333 4H6.66667C5.2 4 4 5.2 4 6.66667V25.3333C4 26.8 5.2 28 6.66667 28H25.3333C26.8 28 28 26.8 28 25.3333V6.66667C28 5.2 26.8 4 25.3333 4ZM25.3333 25.3333H6.66667V6.66667H25.3333V25.3333Z" fill="#00AB42"/>
</svg>
