<svg width="32" height="32" viewBox="0 0 32 32" fill="none" xmlns="http://www.w3.org/2000/svg">
<path d="M15 16L21 12" stroke="#00AB42" stroke-miterlimit="10"/>
<path d="M9.69456 16C8.26656 17.4838 7.27928 18.5098 7.27928 18.5098C6.88881 18.921 6.91105 19.6322 7.32553 20.0109C7.32553 20.0109 7.89966 20.6211 8.10779 20.7901C8.4271 21.05 8.84648 21.08 9.16267 20.8155L12 18.3509" stroke="#00AB42" stroke-miterlimit="10"/>
<path d="M21 20L9.24445 11.5374C8.9163 11.2963 8.48107 11.3236 8.14968 11.5605C7.93414 11.7151 7.33784 12.2708 7.33784 12.2708C6.90768 12.616 6.88461 13.2648 7.28984 13.6391L19.4426 24.7223C19.7625 25.0142 20.2254 25.0832 20.6149 24.8949C21.8426 24.3026 23.6135 23.4475 24.3506 23.0912C24.7485 22.8991 25 22.4961 25 22.0537V9.9313C25 9.48801 24.7466 9.08451 24.3474 8.89387C23.6592 8.56441 21.9635 7.75326 20.6071 7.10406C20.2175 6.91758 19.7583 6.9856 19.4389 7.27711C17.8286 8.74811 14.9071 11.4148 12.3326 13.765" stroke="#00AB42" stroke-miterlimit="10"/>
<path d="M21 25V7" stroke="#00AB42" stroke-miterlimit="10"/>
</svg>
