<svg width="32" height="32" viewBox="0 0 32 32" fill="none" xmlns="http://www.w3.org/2000/svg">
<path d="M24.2733 12.2134C24.2758 12.3009 24.2898 12.3754 24.2898 12.4664C24.2898 13.4164 24.1113 14.4859 23.5768 15.8249L20.8558 23.6924C20.2783 24.0584 19.6578 24.3594 19.0028 24.5889L16.1643 16.8179L13.4398 24.7354C12.8568 24.5639 12.2983 24.3374 11.7703 24.0594L7.57031 12.5574C7.81731 11.9554 8.12481 11.3859 8.48831 10.8559C8.58131 10.8579 8.68581 10.8604 8.76781 10.8604C9.74781 10.8604 11.2663 10.7409 11.2663 10.7409C11.7728 10.7129 11.8313 11.4539 11.3263 11.5144C11.3263 11.5144 10.8178 11.5734 10.2533 11.6039L13.6673 21.7614L15.7188 15.6064L14.2593 11.6019C13.7528 11.5739 13.2753 11.5144 13.2753 11.5144C12.7688 11.4844 12.8298 10.7109 13.3343 10.7409C13.3343 10.7409 14.8828 10.8604 15.8028 10.8604C16.7828 10.8604 18.3013 10.7409 18.3013 10.7409C18.8078 10.7129 18.8663 11.4539 18.3613 11.5144C18.3613 11.5144 17.8523 11.5734 17.2883 11.6039L20.6768 21.6839L21.6133 18.5559C22.0888 17.3379 22.3263 16.3294 22.3263 15.5254C22.3263 14.3669 21.9108 13.5644 21.5528 12.9404C21.0783 12.1669 20.6308 11.5139 20.6308 10.7404C20.6308 9.96695 21.1593 9.24645 21.9343 9.10645C22.9238 9.95895 23.7233 11.0164 24.2733 12.2134Z" fill="#00AB42"/>
<path d="M16 5C22.075 5 27 9.925 27 16C27 22.075 22.075 27 16 27C9.925 27 5 22.075 5 16C5 9.925 9.925 5 16 5ZM16 25C20.9705 25 25 20.9705 25 16C25 11.0295 20.9705 7 16 7C11.0295 7 7 11.0295 7 16C7 20.9705 11.0295 25 16 25Z" fill="#00AB42"/>
</svg>
