<svg width="260" height="260" viewBox="0 0 260 260" fill="none" xmlns="http://www.w3.org/2000/svg">
<path d="M256.999 184.117C256.709 176.447 250.069 169.987 242.289 170.057C239.749 170.037 237.219 170.017 234.679 170.017C234.679 168.967 234.829 103.597 234.829 103.597C234.859 91.6971 234.879 79.3971 234.959 67.3171C234.999 60.1871 235.479 44.8871 220.509 39.6871C214.019 37.6371 209.429 38.2371 203.519 38.2371C194.909 37.5371 185.989 38.7971 177.909 43.9071C178.819 41.4371 179.719 38.9671 180.589 36.4971C184.079 27.4571 176.379 16.9871 166.819 17.0471C158.119 16.8571 149.229 17.4271 140.809 17.9771C133.559 18.5671 125.319 18.5271 118.249 20.2771C107.889 20.6271 101.009 33.0571 106.789 41.8571C106.789 41.8571 107.669 43.2971 107.929 43.7171C93.8591 52.3371 80.0992 61.5071 66.7192 70.4271C48.8591 82.3371 30.6392 94.3571 13.0992 107.467C6.87916 112.117 5.16912 120.447 9.11912 126.827L12.5291 132.337C15.3291 136.847 18.1191 141.367 20.9191 145.877C23.5791 150.167 28.3591 152.837 33.3991 152.837C35.9491 153.187 37.7391 150.817 37.4591 154.367C37.7191 165.117 37.3391 175.617 37.3891 186.337C31.5791 192.077 25.6992 197.657 19.8492 202.977C16.8192 205.087 14.6791 208.297 13.8691 212.037C13.2991 214.657 13.4391 217.377 14.2091 219.877C14.0491 222.477 13.9091 225.727 14.0291 229.167C13.0891 232.837 13.4892 236.857 15.2892 240.267C17.8392 245.097 22.6691 248.047 28.1991 248.157C63.4391 248.857 104.699 248.507 140.739 248.107C160.389 247.867 180.709 247.777 200.569 247.587C205.999 247.217 211.819 248.377 216.969 246.297C218.729 245.637 220.339 244.657 221.759 243.377C231.609 234.467 242.949 224.017 253.029 212.807C254.559 211.107 255.659 209.137 256.279 207.007C258.899 201.207 258.369 195.117 258.039 191.317C257.899 189.187 257.679 186.847 256.999 184.117ZM90.5491 114.957C93.7991 112.707 97.0691 110.447 100.369 108.187C99.4691 109.457 98.6791 110.857 98.0491 112.377C97.6191 113.417 97.2991 114.457 97.0691 115.487C95.0491 115.167 92.8691 114.997 90.5491 114.957ZM135.239 84.5971C136.229 85.9371 137.009 86.9271 138.199 87.9571C134.829 88.0871 131.929 88.5171 129.239 89.2971C124.599 91.1071 133.769 85.8171 135.239 84.5971Z" fill="#FFC799"/>
<path d="M10.2991 235.237C12.8491 240.067 17.6791 243.017 23.2091 243.127C58.4491 243.827 99.7091 243.477 135.749 243.077C155.399 242.837 175.719 242.747 195.579 242.557C201.009 242.187 206.829 243.347 211.979 241.267C213.739 240.607 215.349 239.627 216.769 238.347C226.619 229.437 237.959 218.987 248.039 207.777C249.569 206.077 250.669 204.107 251.289 201.977C253.909 196.177 253.379 190.087 253.049 186.287C252.889 184.187 252.679 181.847 251.989 179.117C251.699 171.447 245.059 164.987 237.279 165.057C234.739 165.037 232.209 165.017 229.669 165.017C229.669 163.967 229.819 98.5973 229.819 98.5973C229.849 86.6973 229.869 74.3973 229.949 62.3173C229.989 55.1873 230.469 39.8773 215.499 34.6873C209.009 32.6373 204.419 33.2373 198.509 33.2373C189.899 32.5373 180.979 33.7973 172.909 38.8973C173.819 36.4273 174.719 33.9573 175.589 31.4873C179.079 22.4473 171.379 11.9773 161.819 12.0373C153.119 11.8473 144.229 12.4173 135.809 12.9673C128.559 13.5573 120.319 13.5173 113.249 15.2673C102.889 15.6173 96.0092 28.0473 101.789 36.8473C101.789 36.8473 102.669 38.2873 102.929 38.7073C88.8591 47.3273 75.0992 56.4973 61.7192 65.4173C43.8591 77.3273 25.6292 89.3473 8.09916 102.457C1.87916 107.107 0.169115 115.437 4.11912 121.817L7.52915 127.327C10.3291 131.837 13.1191 136.357 15.9191 140.867C18.5791 145.157 23.3591 147.827 28.3991 147.827C30.9491 148.177 32.7391 145.807 32.4591 149.357C32.7191 160.107 32.3391 170.607 32.3891 181.327C26.5791 187.067 20.6992 192.647 14.8492 197.967C11.8192 200.077 9.67912 203.277 8.86912 207.027C8.29912 209.647 8.43914 212.367 9.20914 214.867C9.04914 217.467 8.90915 220.717 9.02915 224.157C8.08915 227.807 8.49911 231.827 10.2991 235.237ZM130.239 79.5873C131.229 80.9273 132.009 81.9173 133.199 82.9473C129.829 83.0773 126.929 83.5073 124.239 84.2873C119.599 86.1073 128.769 80.8173 130.239 79.5873ZM95.3691 103.197C94.4691 104.467 93.6791 105.867 93.0491 107.387C92.6191 108.427 92.2991 109.467 92.0691 110.497C90.0491 110.167 87.8692 109.997 85.5392 109.957C88.7992 107.707 92.0691 105.457 95.3691 103.197Z" fill="white"/>
<path d="M206.879 96.3571C206.739 127.157 206.709 157.947 206.549 188.747C207.489 187.837 208.429 186.937 209.339 186.007C210.039 185.297 210.739 184.597 211.409 183.867C211.419 181.927 211.429 179.987 211.429 178.047C211.449 171.347 211.469 164.647 211.489 157.947C211.529 140.007 211.569 122.067 211.619 104.127C211.659 89.997 211.669 75.8671 211.769 61.7371C211.789 59.2771 212.169 56.4271 211.369 54.0871C211.359 54.0471 211.329 54.0171 211.319 53.9771C210.089 55.0171 208.759 55.9871 207.609 56.9871C206.789 57.6971 205.999 58.487 205.179 59.257C208.019 63.627 207.039 69.6771 206.999 74.7071C206.949 81.9271 206.909 89.1371 206.879 96.3571Z" fill="#FF92B9"/>
<path d="M198.409 51.4171C194.169 51.3771 189.829 50.7771 185.909 52.6971C183.899 53.6871 181.929 54.7771 180.009 55.9571C183.929 55.9071 187.849 55.9571 191.739 56.0171C194.799 56.0671 200.149 55.4371 203.299 57.3671C204.389 56.4171 205.559 55.5371 206.609 54.6771C207.579 53.8771 208.579 52.9871 209.639 52.1671C206.699 50.5671 201.159 51.4371 198.409 51.4171Z" fill="#FF92B9"/>
<path d="M168.869 72.0873C168.839 78.8073 168.819 85.5173 168.799 92.2373C168.709 125.987 168.709 159.727 168.499 193.477C178.869 193.427 189.289 192.727 199.639 193.017C199.829 159.137 199.849 125.247 200.029 91.3673C200.059 84.7773 200.099 78.1873 200.159 71.5973C200.179 69.4873 200.719 66.4373 200.149 64.3973C199.249 61.2273 186.129 62.8373 183.149 62.8673C179.269 62.9073 175.319 62.8173 171.449 63.0973C168.669 63.2973 168.919 64.1473 168.899 66.6373C168.889 68.4473 168.879 70.2673 168.869 72.0873Z" fill="#FF92B9"/>
<path d="M147.519 188.737C148.759 187.537 149.989 186.337 151.189 185.097C151.589 184.687 151.989 184.277 152.379 183.857C152.379 183.197 152.389 182.527 152.389 181.867C152.419 176.417 152.439 170.967 152.459 165.517C152.509 152.517 152.559 139.517 152.639 126.517C152.669 121.507 152.689 116.487 152.739 111.477C152.759 109.107 153.119 106.397 152.349 104.137C152.339 104.097 152.319 104.067 152.299 104.027C151.069 105.077 149.739 106.037 148.589 107.037C147.699 107.807 146.839 108.667 145.939 109.497C147.319 111.107 148.109 113.457 148.059 116.897C147.929 124.557 147.879 132.227 147.819 139.887C147.699 156.167 147.609 172.457 147.519 188.737Z" fill="#9AE1FF"/>
<path d="M145.489 101.507C140.609 101.457 133.859 100.137 129.199 101.797C126.289 102.827 123.449 104.307 120.739 106.007C123.569 105.977 126.399 105.997 129.209 106.007C134.539 106.037 140.129 105.707 143.829 107.777C145.039 106.667 146.399 105.667 147.579 104.697C148.579 103.877 149.629 102.947 150.719 102.097C149.299 101.317 147.299 101.527 145.489 101.507Z" fill="#9AE1FF"/>
<path d="M109.479 193.477C119.849 193.427 130.269 192.727 140.619 193.017C140.709 177.517 140.789 162.017 140.899 146.517C140.959 138.597 141.009 130.677 141.109 122.747C141.129 121.147 142.089 114.487 140.809 113.447C139.509 112.387 135.989 112.947 134.519 112.927C132.179 112.887 129.849 112.867 127.509 112.867C124.719 112.877 121.919 112.897 119.129 112.957C116.619 113.007 113.149 112.487 110.749 113.307C109.139 113.857 109.849 119.337 109.839 120.927C109.789 128.267 109.759 135.607 109.729 142.947C109.659 159.787 109.589 176.627 109.479 193.477Z" fill="#9AE1FF"/>
<path d="M93.449 168.487C93.529 157.217 94.1789 145.807 93.7289 134.537C93.6689 133.097 93.459 132.017 93.099 131.177C91.909 132.167 90.659 133.087 89.559 134.047C88.759 134.737 87.979 135.507 87.189 136.257C89.329 139.197 89.0289 143.807 88.9789 147.377C88.7489 161.177 88.619 174.977 88.519 188.777C90.229 187.127 91.919 185.437 93.529 183.697C94.119 183.067 93.359 183.697 93.379 181.497C93.389 180.257 93.399 179.027 93.399 177.787C93.409 174.687 93.429 171.587 93.449 168.487Z" fill="#C3FF83"/>
<path d="M74.3089 128.417C69.8289 128.417 65.3989 130.447 61.3789 133.087C61.4989 133.087 61.6289 133.087 61.7589 133.087C68.6389 132.987 77.1589 131.727 83.7989 133.857C84.3089 134.027 84.7589 134.237 85.1789 134.477C86.2989 133.497 87.4989 132.597 88.5689 131.717C89.4889 130.957 90.4489 130.117 91.4489 129.327C90.2789 128.697 88.6489 128.547 86.4789 128.527C82.4189 128.487 78.3589 128.417 74.3089 128.417Z" fill="#C3FF83"/>
<path d="M50.459 193.477C60.829 193.427 71.249 192.727 81.599 193.017C81.679 180.687 81.789 168.367 81.969 156.037C81.999 153.907 83.3389 140.627 81.1689 140.217C75.0389 139.057 67.989 139.837 61.759 139.947C58.769 139.997 54.569 139.357 51.719 140.327C50.249 140.827 50.839 144.197 50.829 145.507C50.789 150.087 50.749 154.657 50.719 159.237C50.629 170.647 50.539 182.057 50.459 193.477Z" fill="#C3FF83"/>
<path d="M43.6591 195.777C39.8991 199.467 36.089 203.117 32.229 206.707C36.279 206.697 40.329 206.667 44.379 206.657C98.119 206.517 151.869 206.357 205.609 206.147C213.589 198.907 221.539 191.517 229.019 183.727C225.459 183.767 221.909 183.787 218.349 183.807C218.329 185.247 218.129 186.667 217.179 187.747C213.719 191.657 209.829 195.237 205.969 198.747C205.409 199.617 204.449 200.277 203.069 200.357C190.539 201.117 177.779 201.057 165.219 200.867C162.529 200.827 161.359 198.447 161.709 196.407C161.729 192.297 161.739 188.197 161.749 184.087C160.919 184.087 160.079 184.097 159.249 184.107C159.249 184.207 159.249 184.317 159.249 184.417C159.239 186.977 157.749 188.247 156.049 189.977C153.099 192.977 150.059 195.887 146.949 198.727C146.389 199.617 145.419 200.277 144.029 200.367C131.499 201.127 118.739 201.067 106.179 200.877C103.489 200.837 102.319 198.457 102.669 196.417C102.689 192.377 102.699 188.327 102.719 184.287C101.899 184.287 101.079 184.297 100.259 184.297C100.219 185.547 99.9891 186.747 99.0991 187.757C95.6391 191.667 91.749 195.247 87.889 198.757C87.329 199.627 86.369 200.287 84.989 200.367C72.459 201.127 59.699 201.067 47.139 200.877C44.449 200.837 43.279 198.457 43.629 196.417C43.649 196.187 43.6591 195.977 43.6591 195.777Z" fill="#FCA32D"/>
<path d="M209.159 212.177C208.719 212.577 208.239 212.827 207.769 212.967C207.299 213.207 206.759 213.357 206.109 213.357C199.149 213.387 192.199 213.527 185.239 213.557C132.459 213.797 79.549 215.017 26.769 214.077C26.819 214.527 26.869 214.967 26.919 215.387C27.299 218.337 27.559 221.427 27.489 224.437C33.119 224.477 38.749 224.407 44.369 224.397C98.109 224.257 151.859 224.097 205.599 223.887C215.519 214.877 225.419 205.637 234.409 195.697C234.229 193.017 234.899 190.007 234.969 187.437C226.769 196.067 217.959 204.217 209.159 212.177Z" fill="#FFE888"/>
<path d="M124.379 45.0573C90.109 68.8073 54.239 90.2473 20.689 115.037C23.519 119.607 26.3389 124.177 29.1689 128.747C44.7389 117.197 60.639 106.097 76.599 95.1073C94.859 82.5373 113.189 69.8573 132.189 58.4173C132.559 58.0873 132.989 57.8273 133.459 57.6473C134.229 57.2073 134.959 57.2173 135.569 57.4773C136.389 57.6473 137.169 58.0873 137.769 58.9273C139.299 61.0673 140.849 63.1973 142.409 65.3173C147.629 53.7973 152.399 42.0873 156.729 30.1973C148.629 30.2673 140.509 30.9273 132.449 31.5173C128.199 31.8273 123.739 32.6073 119.479 32.3973C121.319 35.0873 123.159 37.7773 125.019 40.4573C125.519 41.1873 125.649 41.9073 125.529 42.5573C125.629 43.4473 125.319 44.3973 124.379 45.0573Z" fill="#FAC08E"/>
<path d="M191.749 56.0073C194.809 56.0573 200.159 55.4273 203.309 57.3573C204.399 56.4073 205.569 55.5273 206.619 54.6673C206.769 54.5473 206.929 54.4073 207.089 54.2773C202.289 55.0773 197.609 54.6073 192.649 54.5373C189.369 54.4873 185.399 54.6073 182.169 55.9473C185.359 55.9373 188.569 55.9573 191.749 56.0073Z" fill="#FF6C9A"/>
<path d="M207.909 94.5872C207.839 88.5272 207.889 82.4672 207.859 76.3972C207.849 73.7472 207.729 70.9872 207.199 68.3472C207.189 70.5172 207.019 72.6972 207.009 74.7172C206.949 81.9272 206.919 89.1472 206.879 96.3572C206.739 127.157 206.709 157.947 206.549 188.747C207.489 187.837 208.429 186.937 209.339 186.007C209.609 185.737 209.869 185.457 210.139 185.187C209.079 168.097 208.659 150.987 208.589 133.807C208.529 120.717 208.059 107.657 207.909 94.5872Z" fill="#FF6C9A"/>
<path d="M199.649 193.007C199.819 162.957 199.859 132.907 199.989 102.847C198.529 118.007 196.469 133.097 193.619 148.087C191.219 160.707 189.079 174.087 181.329 184.687C178.989 187.887 176.249 190.707 173.369 193.397C182.129 193.227 190.909 192.767 199.649 193.007Z" fill="#FF6C9A"/>
<path d="M102.699 191.547C102.709 189.117 102.719 186.697 102.729 184.267C101.909 184.267 101.089 184.277 100.269 184.277C100.229 185.527 99.9989 186.727 99.1089 187.737C95.6489 191.647 91.759 195.227 87.899 198.737C87.829 198.837 87.7489 198.927 87.6689 199.017C90.8489 197.777 93.859 196.127 96.889 194.577C98.859 193.587 100.809 192.637 102.699 191.547Z" fill="#F2853B"/>
<path d="M146.869 198.827C149.339 197.867 151.699 196.457 153.989 195.237C156.609 193.837 159.229 192.407 161.729 190.797C161.739 188.557 161.739 186.317 161.749 184.077C160.919 184.077 160.079 184.087 159.249 184.097C159.249 184.197 159.249 184.307 159.249 184.407C159.239 186.967 157.749 188.237 156.049 189.967C153.099 192.967 150.059 195.877 146.949 198.717C146.929 198.757 146.899 198.787 146.869 198.827Z" fill="#F2853B"/>
<path d="M226.989 183.737C224.109 183.767 221.229 183.787 218.349 183.807C218.329 185.247 218.129 186.667 217.179 187.747C213.829 191.537 210.069 195.017 206.319 198.427C208.229 197.497 210.049 196.207 211.749 195.147C215.039 193.107 218.259 190.917 221.389 188.627C222.489 187.817 225.279 185.847 226.989 183.737Z" fill="#F2853B"/>
<path d="M44.369 224.397C98.109 224.257 151.859 224.097 205.599 223.887C215.519 214.877 225.419 205.637 234.409 195.697C234.349 194.787 234.389 193.837 234.469 192.877C229.969 197.967 225.179 202.807 220.129 207.397C216.439 210.757 212.599 214.007 208.499 216.867C207.079 217.857 205.369 219.227 203.609 219.497C200.829 219.927 197.939 219.897 195.139 219.997C189.689 220.187 184.249 220.297 178.799 220.397C144.719 221.027 110.629 221.137 76.539 221.217C60.179 221.257 43.799 221.107 27.439 221.217C27.489 222.297 27.519 223.377 27.499 224.437C33.119 224.477 38.749 224.417 44.369 224.397Z" fill="#F7C546"/>
<path d="M29.1591 128.747C44.7291 117.197 60.6291 106.097 76.5891 95.1072C94.8491 82.5372 113.179 69.8572 132.179 58.4172C132.549 58.0872 132.979 57.8272 133.449 57.6472C134.219 57.2072 134.949 57.2172 135.559 57.4772C136.379 57.6472 137.159 58.0872 137.759 58.9272C139.289 61.0672 140.839 63.1972 142.399 65.3172C146.779 55.6372 150.829 45.8272 154.589 35.8872C152.809 39.0172 151.059 42.1672 149.249 45.2372C147.979 47.4072 146.709 49.5772 145.449 51.7472C144.909 52.6772 144.379 53.5972 143.849 54.5272C143.429 55.2672 142.999 55.9672 142.449 56.6272C141.059 58.2772 139.529 55.1372 138.869 54.2572C137.149 51.9772 135.649 51.0772 133.269 52.4672C127.499 55.8172 122.029 59.7572 116.559 63.5572C108.109 69.4172 99.639 75.2472 91.209 81.1372C80.559 88.5872 69.979 96.1472 59.249 103.487C48.549 110.807 37.659 117.877 27.019 125.297C27.739 126.457 28.4491 127.607 29.1591 128.747Z" fill="#E09F75"/>
<path d="M90.359 144.857C90.149 142.897 89.669 140.707 88.479 139.097C89.179 141.727 89.019 144.817 88.979 147.377C88.749 161.177 88.619 174.977 88.519 188.777C89.459 187.867 90.379 186.957 91.299 186.027C91.219 177.617 90.889 169.177 90.729 160.787C90.609 155.477 90.909 150.147 90.359 144.857Z" fill="#7CEE8F"/>
<path d="M50.4992 187.227C50.4792 189.307 50.4692 191.387 50.4492 193.467C60.8192 193.417 71.2392 192.717 81.5892 193.007C81.6592 182.497 81.7592 171.987 81.8892 161.487C79.8992 167.317 76.9992 172.787 73.4192 177.307C69.7192 181.977 65.1592 185.807 59.3592 187.417C56.3792 188.247 53.1192 188.347 50.4992 187.227Z" fill="#7CEE8F"/>
<path d="M73.6188 131.227C70.3688 131.157 66.1988 131.497 63.0088 133.057C69.6488 132.847 77.5588 131.857 83.7888 133.857C84.2988 134.027 84.7488 134.237 85.1688 134.477C86.2888 133.497 87.4888 132.597 88.5588 131.717C88.6588 131.637 88.7588 131.547 88.8588 131.467C87.1088 131.817 85.3688 132.007 83.4788 131.957C80.1788 131.867 76.9188 131.297 73.6188 131.227Z" fill="#7CEE8F"/>
<path d="M149.939 149.667C150.139 141.447 150.199 133.227 149.479 125.027C149.229 122.137 149.089 118.707 148.049 115.777C148.059 116.137 148.069 116.497 148.069 116.887C147.939 124.547 147.889 132.217 147.829 139.877C147.709 156.167 147.629 172.457 147.529 188.737C148.039 188.237 148.539 187.727 149.049 187.227C149.109 182.977 149.119 178.717 149.239 174.477C149.459 166.207 149.729 157.937 149.939 149.667Z" fill="#7DB0FF"/>
<path d="M140.619 193.007C140.709 178.157 140.789 163.317 140.889 148.467C140.509 149.857 140.099 151.227 139.659 152.597C137.219 160.177 133.849 168.447 128.089 174.137C125.279 176.917 121.589 178.417 117.789 176.777C113.509 174.927 111.119 170.187 109.639 165.997C109.599 175.157 109.549 184.317 109.489 193.477C119.849 193.427 130.269 192.727 140.619 193.007Z" fill="#7DB0FF"/>
<path d="M129.219 106.007C134.549 106.037 140.139 105.707 143.839 107.777C145.049 106.667 146.409 105.667 147.589 104.697C148.119 104.267 148.659 103.797 149.209 103.337C147.259 103.927 145.279 104.387 143.229 104.617C140.059 104.987 136.819 104.447 133.649 104.247C130.129 104.027 126.029 104.497 122.599 105.987C124.809 105.997 127.019 105.997 129.219 106.007Z" fill="#7DB0FF"/>
<path d="M23.4291 231.787C77.3191 232.837 131.339 231.557 185.239 231.307C192.199 231.277 199.149 231.137 206.109 231.107C206.759 231.107 207.299 230.957 207.769 230.717C208.249 230.577 208.719 230.327 209.159 229.927C219.639 220.437 230.149 210.707 239.609 200.187C240.189 199.547 240.459 198.837 240.509 198.147C242.349 195.047 242.049 190.727 241.739 187.267C241.569 185.247 241.399 182.767 240.599 180.697C240.949 178.707 239.809 176.417 237.169 176.397C230.879 176.337 224.589 176.357 218.289 176.377C218.309 171.537 218.319 166.687 218.329 161.847C218.379 143.357 218.409 124.877 218.459 106.387C218.499 91.6672 218.519 76.9473 218.609 62.2373C218.649 56.1573 218.999 47.7972 211.909 45.4372C207.709 44.0372 202.769 44.6072 198.389 44.5672C194.049 44.5172 189.559 44.0372 185.409 45.5172C178.689 47.8972 172.429 52.3973 167.039 56.9973C162.139 58.9373 162.029 64.6873 161.999 69.9273C161.809 105.487 161.849 141.047 161.749 176.607C160.919 176.607 160.089 176.617 159.259 176.617C159.279 172.917 159.299 169.227 159.309 165.527C159.369 150.277 159.419 135.027 159.519 119.787C159.549 114.757 160.099 109.387 159.339 104.397C158.259 97.2773 153.239 94.7072 146.489 94.6672C140.389 94.6272 133.279 93.4772 127.359 95.1872C120.259 97.2372 113.489 102.327 107.939 107.067C105.919 107.907 104.439 109.457 103.499 111.737C102.409 114.357 102.979 118.137 102.959 120.937C102.929 125.217 102.909 129.507 102.889 133.787C102.819 148.147 102.779 162.507 102.729 176.867C101.899 176.867 101.069 176.877 100.239 176.877C100.259 174.087 100.269 171.297 100.289 168.497C100.339 160.767 100.399 153.027 100.469 145.297C100.519 139.817 101.379 133.667 99.5691 128.377C96.4091 119.097 82.8991 121.617 75.3591 121.577C65.1391 121.527 56.3491 127.717 48.7891 134.177C48.7691 134.197 48.7591 134.217 48.7391 134.237C47.3191 134.867 46.0591 135.807 45.0991 137.227C42.6291 140.867 43.9091 147.997 43.8791 152.147C43.7891 163.447 43.7191 174.747 43.6691 186.057C36.5191 193.227 29.1991 200.237 21.6991 207.037C19.6091 208.067 19.2791 211.077 20.6891 212.807C20.5991 213.677 20.5691 214.567 20.5091 215.417C20.2991 218.867 20.1791 222.447 20.4491 225.897C19.0891 228.007 20.0591 231.727 23.4291 231.787ZM205.599 223.887C151.859 224.097 98.1191 224.267 44.3691 224.397C38.7491 224.407 33.1191 224.477 27.4891 224.437C27.5491 221.427 27.2991 218.347 26.9191 215.387C26.8691 214.967 26.8191 214.527 26.7691 214.077C79.5491 215.007 132.459 213.797 185.239 213.557C192.199 213.527 199.149 213.387 206.109 213.357C206.759 213.357 207.299 213.207 207.769 212.967C208.249 212.827 208.719 212.577 209.159 212.177C217.959 204.207 226.769 196.067 234.969 187.437C234.899 190.007 234.229 193.017 234.409 195.697C225.419 205.647 215.519 214.887 205.599 223.887ZM168.809 92.2373C168.829 85.5173 168.849 78.8073 168.879 72.0873C168.889 70.2673 168.899 68.4472 168.909 66.6272C168.929 64.1372 168.679 63.2873 171.459 63.0873C175.339 62.8073 179.279 62.8972 183.159 62.8572C186.139 62.8272 199.269 61.2172 200.159 64.3872C200.729 66.4272 200.189 69.4673 200.169 71.5873C200.109 78.1773 200.069 84.7672 200.039 91.3572C199.869 125.237 199.849 159.127 199.649 193.007C189.289 192.727 178.879 193.417 168.509 193.467C168.709 159.727 168.719 125.977 168.809 92.2373ZM206.539 188.747C206.699 157.947 206.729 127.157 206.869 96.3572C206.899 89.1472 206.939 81.9272 206.999 74.7172C207.039 69.6772 208.019 63.6273 205.179 59.2673C205.999 58.4973 206.799 57.7073 207.609 56.9973C208.759 55.9973 210.089 55.0373 211.319 53.9873C211.329 54.0273 211.359 54.0572 211.369 54.0972C212.169 56.4372 211.779 59.2773 211.769 61.7473C211.669 75.8773 211.649 90.0072 211.619 104.137C211.569 122.077 211.529 140.017 211.489 157.957C211.469 164.657 211.459 171.357 211.429 178.057C211.419 179.997 211.419 181.937 211.409 183.877C210.729 184.597 210.029 185.307 209.339 186.017C208.419 186.937 207.479 187.837 206.539 188.747ZM185.919 52.6972C189.839 50.7672 194.169 51.3772 198.419 51.4172C201.169 51.4472 206.709 50.5672 209.649 52.1672C208.589 52.9872 207.589 53.8773 206.619 54.6773C205.579 55.5373 204.409 56.4173 203.309 57.3673C200.169 55.4373 194.809 56.0573 191.749 56.0173C187.859 55.9573 183.939 55.9173 180.019 55.9573C181.929 54.7773 183.899 53.6872 185.919 52.6972ZM152.349 104.127C153.119 106.397 152.769 109.107 152.739 111.467C152.689 116.477 152.669 121.497 152.639 126.507C152.569 139.507 152.519 152.507 152.459 165.507C152.439 170.957 152.409 176.407 152.389 181.857C152.389 182.517 152.379 183.187 152.379 183.847C151.989 184.267 151.589 184.677 151.189 185.087C149.989 186.327 148.759 187.527 147.519 188.727C147.609 172.437 147.689 156.147 147.819 139.867C147.879 132.207 147.929 124.537 148.059 116.877C148.119 113.437 147.319 111.097 145.939 109.477C146.829 108.647 147.699 107.777 148.589 107.017C149.739 106.017 151.069 105.057 152.299 104.007C152.319 104.057 152.329 104.087 152.349 104.127ZM110.749 113.317C113.149 112.497 116.609 113.017 119.129 112.967C121.919 112.907 124.719 112.887 127.509 112.877C129.849 112.867 132.179 112.897 134.519 112.937C135.989 112.957 139.509 112.397 140.809 113.457C142.089 114.497 141.129 121.157 141.109 122.757C141.009 130.677 140.959 138.597 140.899 146.527C140.789 162.027 140.709 177.527 140.619 193.027C130.259 192.747 119.849 193.437 109.479 193.487C109.589 176.647 109.659 159.807 109.729 142.967C109.759 135.627 109.789 128.287 109.839 120.947C109.849 119.347 109.139 113.867 110.749 113.317ZM129.209 101.797C133.859 100.147 140.619 101.467 145.499 101.507C147.309 101.527 149.299 101.317 150.739 102.107C149.639 102.947 148.599 103.877 147.599 104.707C146.409 105.677 145.059 106.677 143.849 107.787C140.159 105.717 134.569 106.047 129.229 106.017C126.419 105.997 123.589 105.987 120.759 106.017C123.449 104.297 126.289 102.827 129.209 101.797ZM93.7391 134.537C94.1891 145.797 93.5291 157.207 93.4591 168.487C93.4391 171.587 93.4191 174.687 93.3991 177.777C93.3891 179.017 93.3791 180.247 93.3791 181.487C93.3691 183.687 94.1191 183.057 93.5291 183.687C91.9091 185.427 90.2291 187.117 88.5191 188.767C88.6191 174.967 88.7491 161.167 88.9791 147.367C89.0391 143.797 89.3391 139.187 87.1891 136.247C87.9891 135.497 88.7691 134.727 89.5591 134.037C90.6591 133.087 91.9191 132.167 93.0991 131.167C93.4691 132.017 93.6791 133.107 93.7391 134.537ZM50.7091 159.237C50.7491 154.657 50.7791 150.087 50.8191 145.507C50.8291 144.197 50.2391 140.837 51.7091 140.327C54.5591 139.347 58.7591 139.997 61.7491 139.947C67.9691 139.837 75.0291 139.067 81.1591 140.217C83.3291 140.627 81.9891 153.907 81.9591 156.037C81.7791 168.367 81.6791 180.687 81.5891 193.017C71.2291 192.727 60.8091 193.427 50.4491 193.477C50.5391 182.057 50.6291 170.647 50.7091 159.237ZM86.4691 128.527C88.6391 128.547 90.2791 128.707 91.4391 129.327C90.4391 130.117 89.4791 130.957 88.5591 131.717C87.4891 132.597 86.2891 133.497 85.1691 134.477C84.7491 134.237 84.2991 134.027 83.7891 133.857C77.1591 131.727 68.6291 132.987 61.7491 133.087C61.6291 133.087 61.4991 133.087 61.3691 133.087C65.3891 130.457 69.8191 128.427 74.2991 128.417C78.3591 128.417 82.4191 128.487 86.4691 128.527ZM43.6491 196.397C43.2991 198.447 44.4691 200.817 47.1591 200.857C59.7091 201.047 72.4691 201.107 85.0091 200.347C86.3791 200.267 87.3391 199.617 87.9091 198.737C91.7691 195.217 95.6591 191.647 99.1191 187.737C100.009 186.727 100.239 185.527 100.279 184.277C101.099 184.277 101.919 184.267 102.739 184.267C102.719 188.307 102.709 192.357 102.689 196.397C102.339 198.447 103.509 200.817 106.199 200.857C118.749 201.047 131.509 201.107 144.049 200.347C145.439 200.267 146.399 199.597 146.969 198.707C150.079 195.867 153.109 192.957 156.069 189.957C157.769 188.227 159.259 186.967 159.269 184.397C159.269 184.297 159.269 184.187 159.269 184.087C160.099 184.077 160.939 184.077 161.769 184.067C161.759 188.177 161.749 192.277 161.729 196.387C161.379 198.437 162.549 200.807 165.239 200.847C177.789 201.037 190.549 201.097 203.089 200.337C204.459 200.257 205.419 199.607 205.989 198.727C209.849 195.207 213.739 191.637 217.199 187.727C218.159 186.647 218.359 185.227 218.369 183.787C221.929 183.767 225.479 183.737 229.039 183.707C221.559 191.487 213.599 198.887 205.629 206.127C151.889 206.337 98.1491 206.507 44.3991 206.637C40.3491 206.647 36.2991 206.687 32.2491 206.687C36.1091 203.097 39.9191 199.447 43.6791 195.757C43.6591 195.977 43.6491 196.187 43.6491 196.397Z" fill="#823703"/>
<path d="M14.889 111.517C13.539 112.527 12.779 114.247 13.759 115.827C17.689 122.177 21.619 128.517 25.559 134.867C26.379 136.197 28.459 137.047 29.859 135.997C63.369 110.867 98.139 87.4372 132.929 64.1372C135.259 67.4172 137.679 70.6272 140.099 73.8472C141.499 75.7072 144.889 76.4772 146.109 73.8472C153.099 58.7772 159.389 43.3872 164.899 27.7072C165.659 25.5372 163.689 23.4072 161.589 23.3572C152.269 23.1572 142.899 23.8672 133.599 24.4572C129.129 24.7372 124.669 25.0272 120.209 25.4272C118.089 25.6172 116.069 26.4272 113.949 26.5672C111.849 26.6972 110.259 28.9372 111.459 30.9072C113.829 34.7772 116.199 38.6572 118.629 42.4972C100.259 53.2572 82.5391 65.1572 64.8391 76.9572C48.0091 88.1672 31.099 99.3972 14.889 111.517ZM132.439 31.5272C140.499 30.9372 148.619 30.2872 156.719 30.2072C152.389 42.0972 147.609 53.8072 142.399 65.3272C140.839 63.2072 139.289 61.0772 137.759 58.9372C137.159 58.0972 136.379 57.6572 135.559 57.4872C134.949 57.2172 134.219 57.2172 133.449 57.6572C132.969 57.8372 132.539 58.0972 132.179 58.4272C113.179 69.8772 94.8491 82.5472 76.5891 95.1172C60.6291 106.107 44.7291 117.207 29.1591 128.757C26.3391 124.187 23.509 119.617 20.679 115.047C54.229 90.2572 90.109 68.8072 124.369 45.0672C125.319 44.4072 125.619 43.4572 125.509 42.5772C125.629 41.9172 125.499 41.1972 124.999 40.4772C123.149 37.7972 121.309 35.1072 119.459 32.4172C123.729 32.6072 128.189 31.8372 132.439 31.5272Z" fill="#823703"/>
</svg>
