<svg width="260" height="260" viewBox="0 0 260 260" fill="none" xmlns="http://www.w3.org/2000/svg">
<path d="M209.277 168.854C212.642 168.795 215.555 168.736 218.763 168.805C232.27 169.856 250.299 165.344 247.758 145.25C246.836 139.008 244.6 134.063 242.589 128.804C239.46 120.507 237.174 115.277 234.222 108.926C231.377 102.576 227.071 92.9714 216.497 89.5012C203.666 85.5198 190.512 85.8147 177.339 84.4974C152.001 47.2984 125.958 23.8426 83.9456 9.21469C72.8515 5.24313 60.796 3.58176 50.1531 6.42281C34.6448 9.78487 24.1098 29.446 21.1376 46.0401C6.47296 96.7758 34.2819 147.089 50.1727 170.328C47.0142 180.11 43.1984 190.284 41.3249 199.171C38.7451 209.513 39.4121 216.552 46.1117 224.239C53.4784 233.952 62.2183 242.347 69.8302 249.455C80.6694 260.671 96.7073 265.754 106.958 250.3C112.059 242.318 113.873 234.227 117.562 226.038C118.13 226.53 118.709 226.992 119.308 227.424C121.083 236.144 127.93 243.144 137.572 245.119C150.618 247.823 163.576 240.666 172.591 235.476C179.281 231.769 185.725 227.493 192.366 222.312C198.065 217.869 204.873 212.708 209.13 205.227C215.241 194.698 213.054 180.031 203.097 172.953C202.774 171.498 201.665 170.289 202.607 168.942C204.863 168.932 207.09 168.893 209.277 168.854Z" fill="#FFC799"/>
<path d="M211.577 84.5287C198.742 80.546 185.582 80.841 172.403 79.5233C147.056 42.3122 121.002 18.8488 78.9727 4.21606C67.8741 0.24321 55.8137 -1.4187 45.1665 1.42327C29.6618 4.78643 19.1225 24.4442 16.1393 41.0535C1.4687 91.8057 29.2889 142.135 45.1861 165.382C42.0263 175.167 38.209 185.345 36.3347 194.235C33.7539 204.58 34.4211 211.621 41.1235 219.311C48.4932 229.027 57.2366 237.425 64.8516 244.534C75.6951 255.755 91.7396 260.839 101.994 245.38C107.097 237.395 108.913 229.302 112.602 221.11C113.171 221.602 113.75 222.064 114.349 222.497C116.125 231.219 122.975 238.221 132.621 240.198C145.672 242.902 158.636 235.743 167.654 230.551C174.346 226.843 180.794 222.566 187.437 217.383C193.138 212.938 199.949 207.776 204.208 200.292C210.321 189.76 208.133 175.088 198.173 168.008C197.849 166.552 196.74 165.343 197.682 163.996C199.929 163.986 202.157 163.946 204.345 163.907C207.711 163.848 210.625 163.789 213.834 163.858C227.347 164.91 245.384 160.396 242.842 140.296C241.92 134.052 239.682 129.105 237.67 123.844C234.54 115.544 232.254 110.313 229.3 103.96C226.464 97.6076 222.156 88 211.577 84.5287Z" fill="white"/>
<path d="M107.51 156.07C110.826 159.551 113.603 163.671 116.528 167.428C119.334 171.027 122.082 174.655 124.79 178.323C127.116 177.045 129.403 175.678 131.63 174.272C128.725 170.299 125.84 166.326 123.024 162.294C120.512 158.705 117.666 155.155 115.497 151.31C112.897 152.952 110.228 154.555 107.51 156.07Z" fill="#9AE1FF"/>
<path d="M105.518 157.142C102.858 158.548 100.15 159.836 97.4119 160.947C100.925 164.369 103.898 168.549 106.989 172.286C109.835 175.727 112.632 179.199 115.389 182.709C117.872 181.765 120.335 180.644 122.749 179.395C119.923 175.904 117.117 172.404 114.369 168.844C111.425 165.048 108.059 161.282 105.518 157.142Z" fill="#D2D3FF"/>
<path d="M117.421 150.061C120.286 153.405 122.661 157.289 125.173 160.859C128.019 164.89 130.806 168.942 133.544 173.033C135.624 171.676 137.655 170.299 139.608 168.952C136.851 164.94 134.123 160.918 131.444 156.846C129.03 153.159 126.252 149.491 124.182 145.547C122.003 147.042 119.746 148.557 117.421 150.061Z" fill="#D2D3FF"/>
<path d="M126.066 144.279C128.883 147.74 131.169 151.743 133.603 155.43C136.282 159.482 138.902 163.553 141.483 167.663C143.416 166.326 145.437 164.94 147.488 163.484C144.858 159.423 142.277 155.342 139.746 151.212C137.4 147.396 134.682 143.581 132.719 139.5C130.531 141.142 128.323 142.735 126.066 144.279Z" fill="#9AE1FF"/>
<path d="M134.496 138.162C137.302 141.761 139.51 145.94 141.905 149.785C144.446 153.876 146.909 158.006 149.353 162.146C151.482 160.612 153.612 159 155.692 157.308C153.16 152.952 150.687 148.576 148.254 144.16C146.105 140.266 143.622 136.372 141.934 132.222C139.52 134.277 137.027 136.244 134.496 138.162Z" fill="#D2D3FF"/>
<path d="M157.488 155.824C159.558 154.053 161.541 152.195 163.356 150.238C161.02 145.941 158.744 141.624 156.516 137.277C154.406 133.176 151.914 129.026 150.363 124.65C149.284 125.703 148.195 126.725 147.096 127.728C145.908 128.81 144.701 129.852 143.484 130.895C146.576 135.025 148.833 139.922 151.325 144.406C153.435 148.183 155.466 151.988 157.488 155.824Z" fill="#9AE1FF"/>
<path d="M155.917 118.504C154.622 120.176 153.209 121.759 151.727 123.274C154.897 127.591 157.085 132.783 159.539 137.513C161.403 141.112 163.209 144.741 165.004 148.379C166.27 146.885 167.448 145.331 168.468 143.718C167.242 141.506 166.241 139.018 165.004 136.589C161.953 130.59 158.861 124.582 155.917 118.504Z" fill="#D2D3FF"/>
<path d="M72.7907 160.632C72.8398 160.494 72.8889 160.357 72.9281 160.209C71.4071 160.032 69.7094 160.376 67.6487 161.32C65.7155 162.206 64.3318 163.956 63.272 166.041C62.0454 172.157 59.4547 178.303 57.7865 184.233C56.0594 190.37 52.9388 197.765 53.1547 204.235C53.2136 206.015 57.2958 210.391 59.1112 212.427C62.7715 216.537 66.5398 220.628 70.4454 224.503C74.2823 228.298 78.1978 232.724 82.6627 235.802C84.7529 237.237 85.4595 237.228 86.5782 235.005C87.952 232.291 89.0511 229.439 90.2385 226.627C93.1431 219.753 96.1067 212.889 98.7366 205.907C100.189 202.052 102.652 197.204 102.662 192.975C102.672 191.078 103.103 192.395 101.739 190.842C100.631 189.563 99.5413 188.265 98.4619 186.967C95.4688 183.388 92.4758 179.808 89.473 176.238C86.009 172.138 82.545 168.027 78.9534 164.025C77.4912 162.392 76.1272 161.242 74.6552 160.632C74.5473 160.898 74.4393 161.163 74.351 161.409C73.3305 164.261 72.3001 167.113 71.2599 169.955C70.2589 172.688 69.3267 175.432 68.365 178.185C67.4916 180.664 66.4515 183.093 65.6468 185.59C65.2444 186.82 64.9304 188.039 64.008 188.973C63.9589 189.022 63.8608 188.983 63.8804 188.904C65.323 182.148 67.6487 175.353 69.9253 168.814C70.8674 166.1 71.8192 163.366 72.7907 160.632Z" fill="#FCA32D"/>
<path d="M88.521 163.868C94.5168 170.85 100.385 177.93 106.293 184.981C106.361 185.06 106.42 185.138 106.489 185.207C108.707 184.823 110.905 184.253 113.093 183.535C110.316 180.29 107.549 177.035 104.83 173.721C101.651 169.847 98.0201 166.031 95.3313 161.753C93.0743 162.589 90.8075 163.317 88.521 163.868Z" fill="#9AE1FF"/>
<path d="M176.495 150.671C174.17 150.022 172.462 148.871 171.088 147.426C164.416 157.25 152.973 165.048 143.641 171.401C133.563 178.265 121.581 186.338 109.207 188.964C109.619 189.829 109.864 190.773 109.835 191.855C109.737 195.149 108.991 198.345 108.02 201.482C115.075 204.088 122.592 200.479 129.147 197.558C137.233 193.959 144.946 189.328 152.267 184.362C163.758 176.573 179.341 166.513 182.089 151.871C180.185 151.566 178.311 151.182 176.495 150.671Z" fill="#FFE888"/>
<path d="M143.965 223.982C150.54 222.015 156.693 218.819 162.561 215.298C170.608 210.48 178.439 205.052 185.2 198.512C188.948 194.883 193.364 190.753 191.637 184.961C190.852 182.306 189.655 180.723 187.359 179.936C186.191 182.326 184.189 184.45 182.452 186.161C174.651 193.861 165.966 200.558 156.487 206.084C148.881 210.519 138.578 216.38 129.658 216.233C128.058 224.385 137.439 225.939 143.965 223.982Z" fill="#FAC08E"/>
<path d="M155.192 191.078C146.821 196.575 137.862 201.934 128.49 205.543C126.076 206.478 123.75 207.304 121.464 207.943C123.191 210.175 125.36 211.886 128.519 211.876C131.758 211.867 134.888 211.208 137.93 210.096C144.054 207.864 149.863 204.767 155.417 201.354C162.463 197.027 169.322 192.248 175.377 186.574C177.938 184.175 183.031 180.516 183.601 176.839C184.003 174.193 183.041 171.548 181.785 169.139C174.661 178.166 163.984 185.296 155.192 191.078Z" fill="#FAC08E"/>
<path d="M206.691 102.131C205.415 101.748 204.12 101.423 202.805 101.158C191.794 98.9351 180.362 98.6401 169.352 96.6045C167.772 96.6045 166.202 96.693 164.69 96.9487C162.561 97.2928 159.97 100.272 158.881 103.114C161.383 103.114 163.974 103.459 166.211 103.547C172.973 103.822 179.724 104.177 186.476 104.501C191.264 104.737 196.043 104.993 200.832 105.16C203.786 105.268 205.209 108.798 206.396 111.08C208.261 114.659 209.546 118.445 210.92 122.222C210.969 122.359 210.753 122.477 210.684 122.34C208.643 118.79 206.681 115.24 204.738 111.64C204.061 110.382 202.667 106.989 201.107 106.959C200.528 106.95 199.939 106.92 199.36 106.9C194.257 106.684 189.155 106.409 184.042 106.153C177.673 105.829 171.304 105.563 164.936 105.189C162.787 105.062 160.579 105.042 158.41 104.855C158.302 105.612 158.351 106.31 158.606 106.881C162.62 115.928 167.183 124.739 171.658 133.57C173.316 136.844 175.004 140.099 176.574 143.413C176.123 142.45 177.82 143.689 178.762 143.866C180.833 144.269 182.933 144.525 185.043 144.682C191.932 145.174 198.84 145.242 205.739 145.272C209.507 145.292 213.275 145.301 217.043 145.321C219.163 145.331 222.048 145.724 224.089 144.908C227.445 143.571 215.856 118.799 214.57 115.869C212.578 111.365 210.567 106.605 207.642 102.613C207.819 102.888 207.348 102.328 206.691 102.131Z" fill="#FCA32D"/>
<path d="M61.4172 156.611C61.5546 156.502 61.6919 156.384 61.8391 156.286C66.206 153.326 71.8289 151.792 77.02 153.228C80.4841 154.182 83.1336 157.299 85.4887 160.22C99.1682 157.496 112.494 148.439 123.593 140.768C130.659 135.881 137.577 130.689 143.887 124.838C147.38 121.592 151.06 118.131 153.857 114.158C153.219 112.791 152.571 111.434 151.963 110.057C149.274 104.01 152.836 95.9361 158.479 92.1894C138.538 62.1373 113.044 36.7071 78.7668 23.7954C70.5924 20.7174 61.1817 17.069 52.3008 18.7408C46.4522 19.8422 42.5858 23.756 39.8774 28.6041C38.376 31.7607 37.0708 34.9469 35.9619 38.1625C33.8619 44.5545 32.39 51.153 31.4185 57.84C27.2086 92.2189 41.1727 127.798 61.4172 156.611ZM65.5976 57.5056C69.1499 54.7522 73.3499 52.7854 78.3154 51.684C88.3738 49.4517 99.914 51.7037 108.206 57.899C125.35 70.7124 129.471 96.5458 114.84 113.165C99.0112 131.141 68.2667 129.833 55.2643 108.966C45.1667 92.7696 48.3265 67.0051 65.5976 57.5056Z" fill="#FFE888"/>
<path d="M62.3198 106.291C73.8404 121.455 98.3438 123.175 110.188 107.146C120.649 92.9956 117.666 70.6827 101.288 62.1863C89.669 56.168 78.011 57.9086 68.0409 64.2022C63.3012 68.1849 59.3367 73.0133 57.6979 79.2282C55.2642 88.4523 56.4418 98.5418 62.3198 106.291ZM76.225 67.9292C83.4475 63.9662 92.5246 63.8875 99.8452 69.4829C110.404 77.5565 113.417 93.9396 103.653 104.147C93.6924 114.561 75.0376 114.099 67.197 101.118C60.2591 89.6324 63.5268 73.4361 76.225 67.9292Z" fill="#FFEAD3"/>
<path d="M70.4651 100.932C78.9044 111.208 97.0488 111.886 103.859 99.1222C109.188 89.1507 106.882 75.4424 95.8418 70.2895C88.374 66.7985 80.9847 67.7327 74.7927 71.7252C66.1866 78.8154 62.4968 91.2453 70.4651 100.932Z" fill="#FF92B9"/>
<path d="M110.816 103.331C105.517 113.234 93.7218 116.813 83.1727 115.377C72.5255 113.932 63.1343 106.93 60.0138 96.4571C57.9236 89.4259 58.532 81.7457 60.7792 74.8424C61.3582 73.0625 62.0451 71.2137 62.8497 69.4043C60.5142 72.2561 58.689 75.4914 57.6979 79.2283C55.2642 88.4425 56.4418 98.5418 62.3198 106.291C73.8404 121.455 98.3438 123.176 110.188 107.146C116.469 98.6402 117.901 87.1936 114.486 77.5663C115.37 86.3774 115.124 95.277 110.816 103.331Z" fill="#EAC9B7"/>
<path d="M110.414 88.4817C110.816 82.9944 109.001 77.5563 106.047 72.9934C99.5705 63.0121 86.7448 60.298 76.3036 65.3919C66.2746 70.2891 60.5928 82.4142 63.8606 93.2216C64.0765 93.9394 64.3513 94.6376 64.6555 95.3162C61.5447 84.735 65.5583 72.5509 76.2251 67.9192C83.4476 63.9562 92.5247 63.8775 99.8453 69.4729C108.844 76.3468 112.357 89.2585 107.156 99.2497C109.227 96.1225 110.139 92.1398 110.414 88.4817Z" fill="#EAC9B7"/>
<path d="M102.642 75.7671C102.701 75.9737 102.77 76.1703 102.829 76.3768C104.124 80.9102 104.134 85.778 102.927 90.331C100.493 99.5453 91.8282 104.138 82.7118 102.672C73.4875 101.187 69.1207 92.4846 70.5043 83.821C71.0931 80.1334 72.7515 76.78 74.724 73.643C75.3716 72.6105 76.1371 71.5189 76.981 70.4766C76.2352 70.8502 75.509 71.2633 74.7927 71.7254C66.1866 78.8058 62.4968 91.2357 70.4651 100.922C78.9044 111.198 97.0488 111.877 103.859 99.1126C107.814 91.7274 107.549 82.2575 102.642 75.7671Z" fill="#FF6C9A"/>
<path d="M62.7517 168.372C66.0293 172.699 65.3129 179.189 64.9106 184.647C66.3139 179.317 68.1293 174.006 69.9153 168.844C70.8672 166.11 71.819 163.366 72.7905 160.642C72.8396 160.505 72.8887 160.367 72.9279 160.22C71.4069 160.043 69.7092 160.387 67.6485 161.331C65.7153 162.216 64.3316 163.966 63.2718 166.051C63.1148 166.818 62.9382 167.595 62.7517 168.372Z" fill="#F2853B"/>
<path d="M74.665 160.662C74.5571 160.928 74.4492 161.193 74.3608 161.439C73.3403 164.291 72.3099 167.143 71.2697 169.985C70.9655 170.82 70.6711 171.656 70.3767 172.492C75.3421 170.25 81.7207 177.606 84.6646 180.753C89.9637 186.427 94.5955 192.848 93.9969 200.971C93.3885 209.271 90.1599 217.442 87.0296 225.064C85.4987 228.801 83.5165 231.937 80.9847 234.553C81.544 234.996 82.1132 235.409 82.6922 235.812C84.7824 237.248 85.4889 237.238 86.6076 235.015C87.9814 232.301 89.0805 229.45 90.2679 226.637C93.1726 219.763 96.1361 212.899 98.7661 205.917C100.218 202.062 102.681 197.214 102.691 192.986C102.701 191.088 103.133 192.406 101.769 190.852C100.66 189.573 99.5707 188.275 98.4913 186.977C95.4983 183.398 92.5053 179.818 89.5025 176.249C86.0384 172.148 82.5744 168.037 78.9828 164.035C77.501 162.413 76.137 161.262 74.665 160.662Z" fill="#F2853B"/>
<path d="M218.898 141.998C217.406 142.666 215.591 142.637 213.982 142.686C211.627 142.755 209.281 142.775 206.916 142.686C202.059 142.499 197.221 141.899 192.383 141.437C187.997 141.014 183.355 140.768 179.871 137.759C175.367 133.875 174.288 126.323 173.591 120.698C173.081 116.587 172.256 108.769 176.123 105.77C172.394 105.593 168.665 105.406 164.936 105.19C162.787 105.062 160.579 105.042 158.41 104.855C158.302 105.613 158.351 106.311 158.606 106.881C162.62 115.928 167.183 124.739 171.658 133.57C173.316 136.845 175.004 140.1 176.574 143.414C176.123 142.45 177.82 143.689 178.762 143.866C180.833 144.269 182.933 144.525 185.043 144.682C191.932 145.174 198.84 145.243 205.739 145.272C209.507 145.292 213.275 145.302 217.043 145.322C219.163 145.331 222.048 145.725 224.089 144.909C225.218 144.456 224.649 141.329 223.343 137.277C222.382 139.313 220.978 141.064 218.898 141.998Z" fill="#F2853B"/>
<path d="M166.212 103.537C172.973 103.812 179.724 104.166 186.476 104.491C188.33 104.579 190.185 104.678 192.049 104.766C188.713 104.147 185.396 103.468 182.079 102.76C176.721 101.629 170.892 100.253 166.604 96.7124C165.966 96.7616 165.319 96.8304 164.69 96.9287C162.561 97.2729 159.97 100.253 158.881 103.095C161.374 103.104 163.974 103.449 166.212 103.537Z" fill="#F2853B"/>
<path d="M156.055 179.031C148.155 183.938 139.922 188.314 131.178 191.51C125.085 193.733 116.498 196.644 109.541 195.051C109.217 197.234 108.677 199.377 108.02 201.482C115.075 204.088 122.592 200.479 129.147 197.558C137.233 193.959 144.946 189.327 152.267 184.361C159.735 179.297 168.93 173.269 175.21 165.647C169.234 170.653 162.58 174.97 156.055 179.031Z" fill="#F7C546"/>
<path d="M57.3153 111.886C56.599 110.952 55.9022 109.988 55.2644 108.966C45.1667 92.7693 48.3265 67.0048 65.5976 57.5053C69.1499 54.7519 73.35 52.7851 78.3154 51.6837C88.3738 49.4514 99.9141 51.7034 108.206 57.8987C124.741 70.2598 129.157 94.7164 116.322 111.345C127.842 99.3875 129.059 79.6609 120.394 64.8512C110.875 48.5861 90.0911 43.6102 72.9869 49.3925C64.6163 52.2246 56.8737 57.8594 52.3303 65.5297C47.6592 73.4066 46.6975 83.1715 48.1597 92.0711C49.3667 99.3285 52.4677 106.35 57.3153 111.886Z" fill="#F7C546"/>
<path d="M61.4173 156.611C61.5546 156.502 61.692 156.384 61.8392 156.286C66.2061 153.326 71.829 151.792 77.0201 153.228C80.4842 154.182 83.1337 157.299 85.4888 160.22C99.1683 157.496 112.495 148.439 123.593 140.768C125.163 139.677 126.733 138.575 128.284 137.454C121.739 141.004 114.742 143.758 107.156 145.371C95.0272 147.957 81.9757 147.603 70.6416 142.243C60.3378 137.376 52.4775 128.614 46.9037 118.839C38.1994 103.606 34.9709 85.7876 34.8532 68.4211C34.7845 58.5873 35.7069 48.7634 36.9041 39.0082C37.1102 37.2873 37.3457 35.5467 37.6205 33.8062C37.0317 35.2517 36.4821 36.7071 35.9817 38.1724C33.8817 44.5643 32.4097 51.1628 31.4382 57.8498C27.2087 92.2189 41.1728 127.798 61.4173 156.611Z" fill="#F7C546"/>
<path d="M168.9 209.201C163.003 212.791 156.192 215.593 149.294 216.419C145.84 216.832 141.021 216.842 137.587 215.033C134.898 215.8 132.229 216.262 129.668 216.223C128.068 224.375 137.449 225.929 143.975 223.972C150.55 222.005 156.703 218.809 162.571 215.289C170.618 210.47 178.449 205.042 185.21 198.502C188.203 195.601 191.618 192.376 191.991 188.246C190.283 191.186 188.016 193.802 185.632 196.211C180.715 201.187 174.857 205.583 168.9 209.201Z" fill="#E09F75"/>
<path d="M176.741 185.07C171.02 189.485 165.044 193.399 158.793 197.018C152.365 200.735 145.849 203.803 138.568 205.435C134.466 206.36 129.933 206.999 125.595 206.616C124.202 207.107 122.828 207.56 121.464 207.943C123.191 210.175 125.36 211.886 128.519 211.877C131.758 211.867 134.888 211.208 137.93 210.097C144.054 207.864 149.863 204.767 155.417 201.354C162.463 197.028 169.322 192.248 175.377 186.574C176.457 185.571 177.978 184.332 179.43 182.975C178.537 183.683 177.634 184.381 176.741 185.07Z" fill="#E09F75"/>
<path d="M116.528 167.417C119.334 171.016 122.082 174.645 124.79 178.313C125.438 177.959 126.076 177.585 126.714 177.212C123.907 173.74 121.12 170.259 118.51 166.611C116.734 164.123 114.997 161.615 113.211 159.137C112.446 158.085 111.759 156.993 111.121 155.863C110.826 155.341 110.63 154.84 110.483 154.348C109.492 154.928 108.501 155.509 107.5 156.069C110.817 159.54 113.594 163.671 116.528 167.417Z" fill="#7DB0FF"/>
<path d="M106.489 185.207C107.156 185.089 107.814 184.961 108.471 184.814C106.204 182.345 103.957 179.857 101.818 177.271C99.5411 174.518 97.3724 171.676 95.2626 168.794C94.0262 167.103 92.5247 165.146 91.406 163.091C90.4444 163.386 89.4827 163.651 88.521 163.887C94.5168 170.869 100.385 177.95 106.293 185.001C106.361 185.05 106.42 185.128 106.489 185.207Z" fill="#7DB0FF"/>
<path d="M152.983 142.765C151.305 139.785 149.765 136.736 148.175 133.708C147.302 132.046 146.497 130.344 146.075 128.624C145.221 129.381 144.358 130.128 143.484 130.875C146.576 135.006 148.833 139.903 151.325 144.387C153.435 148.173 155.466 151.989 157.488 155.814C158.204 155.204 158.911 154.575 159.598 153.936C159.401 153.621 159.185 153.306 158.999 152.982C156.938 149.619 154.917 146.216 152.983 142.765Z" fill="#7DB0FF"/>
<path d="M143.278 166.425C140.668 162.167 137.96 157.918 135.202 153.798C133.485 151.231 131.62 148.773 130.05 146.108C129.304 144.839 128.853 143.659 128.608 142.499C127.764 143.099 126.92 143.699 126.066 144.279C128.883 147.74 131.169 151.743 133.603 155.43C136.282 159.482 138.902 163.553 141.483 167.664C142.071 167.261 142.68 166.838 143.278 166.425Z" fill="#7DB0FF"/>
<path d="M151.786 160.348C148.734 157.132 146.487 153.051 144.181 149.324C142.483 146.58 140.962 143.728 139.559 140.837C138.656 138.998 138.018 137.317 137.852 135.566C136.743 136.442 135.624 137.307 134.505 138.163C137.312 141.762 139.52 145.941 141.914 149.786C144.456 153.877 146.919 158.007 149.362 162.147C150.167 161.567 150.982 160.957 151.786 160.348Z" fill="#A2A3F5"/>
<path d="M118.569 181.401C117.764 180.919 116.979 180.398 116.224 179.769C113.604 177.625 111.454 174.783 109.305 172.187C107.48 169.974 105.606 167.811 103.898 165.51C102.701 163.887 101.053 161.743 100.562 159.59C99.5217 160.072 98.4717 160.534 97.4119 160.957C100.925 164.379 103.898 168.558 106.989 172.295C109.835 175.737 112.632 179.208 115.389 182.719C116.459 182.306 117.509 181.863 118.569 181.401Z" fill="#A2A3F5"/>
<path d="M136.615 170.997C133.426 169.148 131.12 166.11 128.755 162.845C125.948 158.99 121.071 153.237 120.737 147.878C119.648 148.606 118.549 149.333 117.43 150.061C120.296 153.405 122.671 157.289 125.183 160.859C128.029 164.89 130.816 168.942 133.553 173.033C134.584 172.364 135.604 171.676 136.615 170.997Z" fill="#A2A3F5"/>
<path d="M166.741 146.206C163.964 142.764 161.992 138.86 159.931 134.838C158.636 132.301 157.301 129.794 156.015 127.247C155.054 125.349 153.915 123.412 153.484 121.386C152.905 122.025 152.326 122.664 151.717 123.284C154.887 127.601 157.075 132.793 159.529 137.523C161.393 141.122 163.199 144.751 164.994 148.389C165.603 147.672 166.192 146.944 166.741 146.206Z" fill="#A2A3F5"/>
<path d="M208.113 95.1293C199.978 92.4643 190.725 92.1791 182.266 91.5497C178.733 91.2842 174.543 90.6254 170.559 90.6549C169.116 90.527 167.595 90.2714 166.094 90.173C154.416 72.1378 140.864 55.263 124.28 41.5252C109.776 29.5182 93.0938 20.8742 75.3615 14.7576C66.4218 11.6698 57.2367 9.85055 47.9142 12.2303C40.3091 14.1676 35.2553 21.1594 32.0759 27.8661C29.7207 32.8223 28.0721 38.1817 26.9534 43.7378C15.0795 84.0859 33.067 129.725 57.3545 163.327C56.4909 165.923 55.9119 168.657 55.1858 170.81C54.8619 171.754 54.5479 172.708 54.2339 173.662C51.4568 181.195 48.9937 188.944 47.1684 196.771C46.56 199.387 46.089 202.052 46.0399 204.737C45.9909 207.756 48.2675 210.313 49.9848 212.564C56.5694 221.248 64.4984 228.957 72.4372 236.372C78.6489 242.164 86.5485 248.615 92.7013 239.244C96.1359 234.012 98.02 227.227 100.414 221.464C102.24 217.078 104.045 212.682 105.694 208.228C109.541 209.359 113.122 209.496 116.685 208.985C119.059 212.604 121.993 214.659 125.242 215.613C123.976 222.457 128.333 228.328 135.683 229.429C145.29 230.865 155.633 224.552 163.64 220.028C169.587 216.675 175.23 212.791 180.607 208.592C185.494 204.776 191.451 200.282 194.542 194.805C198.614 187.596 196.338 177.812 188.311 175.363C188.075 171.646 186.554 168.185 184.729 164.959C187.064 161.173 188.732 157.082 189.39 152.647C196.897 153.08 204.63 152.647 211.774 152.677C219.948 152.716 233.588 154.162 231.841 141.869C231.164 137.08 228.976 132.291 227.278 127.797C225.139 122.143 222.892 116.537 220.321 111.07C217.455 105.002 214.953 97.3615 208.113 95.1293ZM106.489 185.207C106.42 185.128 106.361 185.049 106.292 184.981C100.385 177.93 94.5167 170.849 88.5209 163.867C90.8074 163.317 93.0742 162.589 95.3312 161.753C98.02 166.031 101.651 169.837 104.83 173.721C107.549 177.035 110.306 180.28 113.093 183.535C110.905 184.253 108.697 184.823 106.489 185.207ZM115.389 182.709C112.632 179.198 109.835 175.727 106.989 172.285C103.898 168.548 100.925 164.379 97.4116 160.947C100.149 159.826 102.858 158.547 105.517 157.141C108.049 161.281 111.415 165.038 114.359 168.843C117.107 172.403 119.913 175.904 122.739 179.395C120.335 180.644 117.872 181.765 115.389 182.709ZM124.79 178.313C122.072 174.645 119.334 171.017 116.528 167.417C113.603 163.661 110.826 159.541 107.509 156.059C110.228 154.555 112.897 152.942 115.487 151.3C117.666 155.145 120.512 158.695 123.014 162.284C125.84 166.316 128.715 170.299 131.62 174.262C129.402 175.678 127.116 177.045 124.79 178.313ZM133.543 173.033C130.806 168.932 128.019 164.88 125.173 160.858C122.661 157.299 120.286 153.414 117.421 150.061C119.746 148.556 122.003 147.032 124.192 145.547C126.262 149.49 129.029 153.158 131.453 156.846C134.122 160.917 136.851 164.939 139.618 168.952C137.655 170.309 135.624 171.676 133.543 173.033ZM141.492 167.663C138.911 163.553 136.291 159.472 133.612 155.43C131.169 151.742 128.892 147.74 126.076 144.279C128.333 142.744 130.541 141.142 132.739 139.509C134.701 143.59 137.42 147.396 139.765 151.221C142.297 155.351 144.878 159.432 147.508 163.494C145.437 164.939 143.415 166.326 141.492 167.663ZM149.352 162.156C146.909 158.007 144.436 153.886 141.904 149.795C139.52 145.94 137.312 141.771 134.495 138.172C137.017 136.254 139.51 134.287 141.934 132.242C143.612 136.392 146.104 140.286 148.253 144.18C150.687 148.596 153.16 152.972 155.692 157.328C153.621 159 151.482 160.613 149.352 162.156ZM157.487 155.823C155.466 151.998 153.435 148.183 151.325 144.397C148.832 139.912 146.575 135.015 143.484 130.885C144.691 129.843 145.908 128.8 147.095 127.718C148.185 126.725 149.284 125.693 150.363 124.64C151.914 129.017 154.416 133.166 156.516 137.267C158.753 141.623 161.02 145.94 163.356 150.228C161.54 152.185 159.558 154.053 157.487 155.823ZM165.004 148.379C163.209 144.741 161.413 141.112 159.538 137.513C157.085 132.773 154.887 127.591 151.727 123.274C153.209 121.759 154.622 120.176 155.917 118.504C158.861 124.581 161.962 130.59 165.014 136.598C166.251 139.027 167.252 141.515 168.478 143.728C167.438 145.341 166.27 146.885 165.004 148.379ZM31.4282 57.8395C32.3997 51.1525 33.8717 44.554 35.9717 38.162C37.0904 34.9464 38.3857 31.7602 39.8871 28.6036C42.5857 23.7555 46.4619 19.8417 52.3105 18.7403C61.2012 17.0686 70.6022 20.7071 78.7765 23.7949C113.054 36.7067 138.548 62.1368 158.488 92.1889C152.846 95.9356 149.284 104.009 151.973 110.057C152.581 111.434 153.229 112.791 153.866 114.158C151.06 118.13 147.39 121.592 143.896 124.837C137.596 130.688 130.668 135.881 123.603 140.768C112.504 148.438 99.178 157.495 85.4985 160.219C83.1335 157.299 80.484 154.181 77.0298 153.227C71.8484 151.792 66.2255 153.326 61.8489 156.286C61.7017 156.384 61.5643 156.502 61.4269 156.61C41.1726 127.797 27.2086 92.2184 31.4282 57.8395ZM98.756 205.917C96.1261 212.909 93.1625 219.763 90.2578 226.637C89.0704 229.439 87.9714 232.291 86.5975 235.015C85.4788 237.237 84.7723 237.247 82.6821 235.812C78.2171 232.743 74.3017 228.308 70.4648 224.513C66.5493 220.638 62.7909 216.557 59.1306 212.437C57.3152 210.401 53.2329 206.025 53.1741 204.245C52.9582 197.765 56.0788 190.379 57.8059 184.243C59.4741 178.313 62.0648 172.167 63.2914 166.051C64.3512 163.956 65.7349 162.206 67.668 161.33C69.7386 160.386 71.4265 160.042 72.9475 160.219C72.8984 160.357 72.8592 160.504 72.8101 160.642C71.8386 163.376 70.8867 166.11 69.9349 168.843C67.668 175.383 65.3423 182.168 63.89 188.934C63.8704 189.013 63.9685 189.052 64.0176 189.003C64.9302 188.068 65.254 186.849 65.6564 185.62C66.4708 183.122 67.511 180.693 68.3746 178.215C69.3363 175.471 70.2685 172.718 71.2695 169.984C72.3096 167.142 73.3498 164.29 74.3606 161.439C74.4489 161.193 74.5568 160.937 74.6648 160.662C76.1368 161.271 77.5008 162.422 78.9629 164.054C82.5545 168.057 86.0186 172.157 89.4826 176.268C92.4952 179.828 95.4784 183.417 98.4714 186.997C99.5607 188.295 100.64 189.593 101.749 190.871C103.103 192.425 102.671 191.097 102.671 193.005C102.671 197.214 100.199 202.072 98.756 205.917ZM191.647 184.961C193.364 190.753 188.958 194.873 185.21 198.512C178.448 205.061 170.627 210.48 162.571 215.298C156.693 218.819 150.54 222.005 143.975 223.982C137.449 225.938 128.068 224.395 129.667 216.232C138.587 216.38 148.901 210.519 156.496 206.084C165.966 200.557 174.651 193.861 182.462 186.161C184.199 184.45 186.211 182.326 187.368 179.936C189.665 180.723 190.862 182.306 191.647 184.961ZM183.6 176.838C183.041 180.526 177.938 184.184 175.377 186.574C169.332 192.238 162.463 197.027 155.417 201.354C149.863 204.766 144.053 207.854 137.93 210.096C134.888 211.207 131.758 211.856 128.519 211.876C125.369 211.886 123.2 210.185 121.464 207.943C123.75 207.303 126.066 206.477 128.49 205.543C137.861 201.934 146.821 196.585 155.191 191.078C163.984 185.295 174.66 178.166 181.785 169.129C183.041 171.548 184.003 174.193 183.6 176.838ZM152.257 184.361C144.937 189.327 137.223 193.959 129.137 197.558C122.582 200.469 115.075 204.078 108.01 201.482C108.981 198.345 109.727 195.149 109.825 191.854C109.855 190.773 109.609 189.829 109.197 188.963C121.571 186.328 133.553 178.254 143.631 171.4C152.964 165.048 164.406 157.259 171.079 147.425C172.453 148.881 174.17 150.021 176.486 150.671C178.301 151.182 180.166 151.565 182.069 151.87C179.341 166.513 163.748 176.573 152.257 184.361ZM224.07 144.908C222.028 145.724 219.143 145.331 217.024 145.321C213.255 145.301 209.487 145.291 205.719 145.272C198.82 145.232 191.902 145.173 185.023 144.682C182.913 144.534 180.823 144.269 178.743 143.866C177.801 143.679 176.103 142.449 176.554 143.413C174.994 140.089 173.296 136.834 171.638 133.57C167.163 124.739 162.6 115.938 158.587 106.881C158.331 106.31 158.282 105.612 158.39 104.855C160.569 105.032 162.777 105.061 164.916 105.189C171.275 105.563 177.653 105.838 184.022 106.153C189.125 106.409 194.228 106.684 199.34 106.9C199.919 106.93 200.508 106.949 201.087 106.959C202.647 106.999 204.041 110.381 204.718 111.64C206.661 115.239 208.633 118.799 210.665 122.339C210.743 122.477 210.959 122.369 210.9 122.221C209.526 118.435 208.241 114.659 206.376 111.08C205.189 108.798 203.766 105.258 200.812 105.16C196.024 104.993 191.245 104.737 186.456 104.501C179.704 104.167 172.943 103.822 166.192 103.547C163.964 103.458 161.364 103.114 158.861 103.114C159.96 100.282 162.541 97.3025 164.671 96.9485C166.182 96.7026 167.742 96.6142 169.332 96.6043C180.342 98.6399 191.775 98.9349 202.785 101.157C204.09 101.423 205.395 101.747 206.671 102.131C207.338 102.328 207.809 102.888 207.613 102.613C210.537 106.615 212.549 111.365 214.541 115.869C215.846 118.799 227.426 143.571 224.07 144.908Z" fill="#823703"/>
<path d="M114.83 113.164C129.461 96.5453 125.34 70.7119 108.196 57.8985C99.9041 51.7032 88.3639 49.4414 78.3054 51.6835C73.34 52.7849 69.14 54.7517 65.5876 57.5052C48.3165 67.0144 45.1567 92.7691 55.2544 108.965C68.2568 129.823 99.0013 131.141 114.83 113.164ZM57.6979 79.228C59.3367 73.0229 63.3012 68.1847 68.0409 64.202C78.011 57.9083 89.6788 56.1678 101.288 62.186C117.666 70.6824 120.639 92.9953 110.188 107.146C98.3438 123.175 73.8404 121.444 62.3198 106.291C56.4418 98.5416 55.2642 88.4521 57.6979 79.228Z" fill="#823703"/>
<path d="M103.653 104.147C113.417 93.9399 110.404 77.547 99.8453 69.4833C92.5247 63.8878 83.4574 63.9764 76.2251 67.9295C63.5269 73.4463 60.2592 89.6426 67.197 101.119C75.0377 114.089 93.6924 114.552 103.653 104.147ZM70.4648 100.932C62.4965 91.2356 66.1961 78.8156 74.7924 71.7352C80.9845 67.7329 88.3737 66.8085 95.8415 70.2995C106.871 75.4524 109.178 89.1607 103.859 99.1322C97.0485 111.887 78.9041 111.208 70.4648 100.932Z" fill="#823703"/>
<path d="M63.1935 190.724C63.1542 190.685 63.0954 190.675 63.0463 190.694C62.5262 190.881 62.4575 191.265 62.2809 191.756C62.1141 192.199 61.9472 192.72 62.2122 193.143C62.2416 193.192 62.3103 193.222 62.3692 193.192C62.85 193.015 63.0757 192.504 63.2524 192.051C63.4388 191.55 63.6056 191.137 63.1935 190.724Z" fill="#823703"/>
<path d="M211.597 123.697C211.45 123.647 211.244 123.687 211.224 123.874C211.175 124.375 211.46 124.828 211.627 125.28C211.774 125.683 211.951 126.155 212.372 126.322C212.451 126.352 212.52 126.332 212.569 126.253C212.824 125.86 212.687 125.359 212.53 124.965C212.353 124.503 212.117 123.874 211.597 123.697Z" fill="#823703"/>
<path d="M69.4834 213.234C67.2656 210.883 65.3226 207.982 62.8301 205.937C62.6633 205.799 62.4081 205.957 62.4768 206.173C63.3011 208.818 65.4404 211.159 67.2558 213.194C69.7385 215.977 72.3684 218.259 75.2731 220.57C75.4105 220.678 75.646 220.511 75.5184 220.353C73.5754 217.885 71.6521 215.535 69.4834 213.234Z" fill="#823703"/>
<path d="M168.675 154.063C166.997 155.981 165.436 158.017 163.66 159.855C162.11 161.458 159.646 162.678 158.557 164.615C158.528 164.664 158.577 164.723 158.626 164.723C160.952 164.792 163.248 162.412 164.828 160.908C166.82 159.01 168.419 156.945 168.989 154.231C169.028 154.044 168.802 153.926 168.675 154.063Z" fill="#823703"/>
<path d="M157.419 165.942C157.438 165.844 157.38 165.746 157.272 165.726C157.134 165.667 157.105 165.677 157.193 165.746C156.987 165.529 156.663 165.559 156.428 165.687C155.917 165.962 155.535 166.326 155.103 166.69C154.593 167.122 155.074 167.86 155.672 167.555C156.182 167.299 156.653 167.093 157.115 166.729C157.321 166.562 157.478 166.277 157.36 166.001C157.409 166.11 157.419 166.09 157.419 165.942Z" fill="#823703"/>
<path d="M54.2928 63.9955C54.3812 63.8579 54.1947 63.7202 54.0671 63.7989C50.2302 66.1786 48.2185 70.0925 46.7171 74.262C45.4709 77.7137 44.205 82.6699 45.4807 86.2691C45.5101 86.3674 45.6769 86.3969 45.7162 86.2887C46.2461 84.8333 46.305 83.2501 46.5994 81.7357C46.9919 79.6706 47.4727 77.6055 48.091 75.5896C49.3961 71.3611 51.9966 67.7225 54.2928 63.9955Z" fill="#823703"/>
<path d="M55.2938 62.8548C55.7059 62.7761 56.1083 62.4221 56.4125 62.1369C56.8737 61.714 57.2858 61.4682 57.4134 60.8093C57.433 60.7208 57.3742 60.6323 57.2859 60.6127C56.6578 60.4848 56.2849 60.7602 55.8335 61.1633C55.4606 61.4879 54.9601 62.068 55.0092 62.5991C55.0092 62.7269 55.1368 62.8843 55.2938 62.8548Z" fill="#823703"/>
<path d="M119.05 112.624C123.279 111.296 125.507 104.412 125.065 100.469C125.046 100.322 124.859 100.282 124.79 100.41C123.613 102.455 123.152 104.629 122.269 106.802C121.425 108.887 119.874 110.48 118.922 112.466C118.883 112.565 118.961 112.653 119.05 112.624Z" fill="#823703"/>
<path d="M96.087 37.956C99.4725 39.8736 102.78 41.9386 106.185 43.8267C106.293 43.8857 106.45 43.7383 106.361 43.6301C104.134 40.9651 100.935 39.195 97.9809 37.484C92.8683 34.5142 87.422 31.3378 81.7206 29.6857C81.6715 29.6661 81.6323 29.7447 81.6715 29.7742C86.1561 32.9506 91.308 35.2418 96.087 37.956Z" fill="#823703"/>
</svg>
