<svg width="260" height="260" viewBox="0 0 260 260" fill="none" xmlns="http://www.w3.org/2000/svg">
<path d="M47.2918 216.443C82.0418 223.053 105.482 226.713 145.382 232.993C164.052 235.833 182.582 239.813 201.752 240.523C212.272 240.743 218.892 236.493 225.592 230.523C232.702 224.953 240.752 218.633 245.182 208.443C248.662 200.443 249.342 192.003 249.942 184.563C251.772 164.273 253.062 143.683 254.222 123.863C259.332 80.5133 255.622 51.8333 200.332 43.4433C168.692 38.8633 136.282 32.7533 104.802 28.5233C65.5319 23.0733 56.5318 16.9533 26.3818 46.8633C21.0918 53.6633 20.3818 61.8233 19.6918 67.8733C17.3718 88.3633 15.5719 108.953 13.7719 129.143C12.7219 140.943 11.6618 153.523 10.3518 169.943C7.75184 196.343 19.8718 212.653 47.2918 216.443Z" fill="#FFC799"/>
<path d="M42.2816 211.433C77.0316 218.043 100.472 221.703 140.372 227.983C159.042 230.823 177.572 234.803 196.742 235.513C207.262 235.733 213.882 231.483 220.582 225.513C227.682 219.943 235.742 213.623 240.172 203.433C243.652 195.433 244.332 186.993 244.932 179.553C246.762 159.263 248.052 138.673 249.212 118.853C254.322 75.5035 250.612 46.8235 195.322 38.4335C163.682 33.8535 131.272 27.7435 99.7916 23.5135C60.5216 18.0635 51.5217 11.9435 21.3717 41.8535C16.0817 48.6535 15.3716 56.8135 14.6816 62.8635C12.3616 83.3535 10.5616 103.943 8.76164 124.133C7.71164 135.933 6.65162 148.513 5.34162 164.933C2.75162 191.343 14.8716 207.653 42.2816 211.433Z" fill="white"/>
<path d="M189.692 103.093C192.452 102.073 192.452 98.6832 190.362 96.9332C189.712 96.3932 188.942 96.0932 188.162 95.8232C186.242 96.1732 184.392 96.8232 184.592 99.3032C184.772 101.553 187.282 103.983 189.692 103.093Z" fill="#FF92B9"/>
<path d="M167.602 99.4536C170.362 98.4336 170.362 95.0436 168.272 93.2936C167.622 92.7536 166.852 92.4536 166.072 92.1836C164.152 92.5336 162.302 93.1836 162.502 95.6636C162.692 97.9136 165.192 100.344 167.602 99.4536Z" fill="#9AE1FF"/>
<path d="M58.4619 184.883C79.6519 188.983 100.982 192.433 122.292 195.823C140.732 198.753 159.202 202.003 177.742 204.233C185.152 205.123 194.392 207.273 196.662 198.103C198.522 190.583 198.902 182.613 199.522 174.913C201.022 156.353 202.162 137.753 203.222 119.163C203.872 107.793 207.172 92.7234 194.542 86.8734C184.892 82.4034 173.572 81.7434 163.162 80.1934C152.202 78.5534 141.242 76.9334 130.272 75.3234C120.292 73.8534 110.312 72.3134 100.372 70.5534C98.0819 70.1434 95.8019 69.6234 93.5219 69.0934C84.4619 67.7334 75.4018 66.4134 66.3218 65.2234C61.1118 64.5434 52.7418 62.1434 48.1318 65.3934C42.8718 69.1034 43.8018 80.8534 43.2518 86.4234C41.6418 102.543 40.0419 118.653 38.6519 134.793C38.0419 141.943 37.4419 149.103 36.8719 156.263C36.4419 161.593 35.6418 167.453 37.3818 172.643C40.3818 181.603 50.2719 183.293 58.4619 184.883ZM180.052 97.9834C180.552 94.4634 184.222 91.0534 187.722 91.3634C190.862 90.7434 195.042 94.4834 196.012 97.1534C197.752 101.983 194.572 107.953 189.032 107.933C183.832 107.903 179.302 103.293 180.052 97.9834ZM157.962 94.3434C158.462 90.8234 162.132 87.4134 165.632 87.7234C168.772 87.1134 172.952 90.8434 173.922 93.5134C175.662 98.3434 172.482 104.313 166.942 104.293C161.742 104.263 157.212 99.6534 157.962 94.3434ZM135.872 90.7034C136.372 87.1834 140.042 83.7734 143.542 84.0834C146.682 83.4734 150.862 87.2034 151.832 89.8734C153.572 94.7034 150.392 100.673 144.852 100.653C139.652 100.623 135.122 96.0234 135.872 90.7034ZM49.3319 154.913C50.2119 144.033 51.2218 133.173 52.3118 122.323C53.0918 114.563 53.5419 107.173 63.2719 108.233C67.5219 108.703 71.7619 109.393 75.9919 110.043C92.6919 112.603 109.372 115.253 126.052 117.923C135.262 119.403 144.572 120.743 153.742 122.603C158.002 123.273 162.262 123.953 166.532 124.613C174.912 125.923 187.752 126.533 188.312 137.473C188.652 144.183 187.762 151.103 187.342 157.783C186.812 166.103 186.852 174.903 185.132 183.083C183.472 190.993 177.372 190.603 170.522 189.603C165.702 188.903 160.892 188.133 156.082 187.373C124.632 182.403 93.0419 177.783 61.7719 171.783C57.9619 171.053 54.0219 170.043 51.4319 166.963C48.6419 163.643 49.0019 158.913 49.3319 154.913Z" fill="#FFEAD3"/>
<path d="M145.512 95.8135C148.272 94.7935 148.272 91.4035 146.182 89.6535C145.532 89.1135 144.762 88.8135 143.982 88.5435C142.062 88.8935 140.212 89.5435 140.412 92.0235C140.602 94.2735 143.102 96.7035 145.512 95.8135Z" fill="#C3FF83"/>
<path d="M207.102 59.7634C196.402 56.8934 185.092 55.8534 174.152 54.2334C162.742 52.5434 151.312 50.9934 139.922 49.1834C130.052 47.6234 120.202 45.9634 110.362 44.2134C109.372 44.0334 108.392 43.8234 107.412 43.5934C105.262 43.2834 103.112 42.9634 100.952 42.6534C90.0818 41.0734 79.2118 39.4534 68.3018 38.1434C63.7018 37.5934 58.9418 37.0334 54.7018 39.3134C52.0418 40.7434 49.5318 42.4634 47.1118 44.3134C50.0318 44.5334 52.9618 44.9834 55.8018 45.3534C74.0818 47.7434 92.3218 50.4734 110.552 53.2434C125.572 55.5234 140.722 57.7134 155.622 60.8734C159.872 61.5034 164.132 62.1334 168.382 62.7734C179.962 64.5134 192.392 65.3334 203.442 69.3834C210.432 71.9434 217.112 75.7534 220.362 82.7734C223.062 88.6034 222.962 95.2834 222.662 101.563C221.992 115.193 221.122 128.813 220.252 142.433C219.102 160.333 218.052 178.263 216.202 196.103C215.882 199.203 215.672 202.623 215.182 205.993C217.632 203.843 219.852 201.523 221.442 198.873C224.622 193.573 225.282 187.473 225.892 181.443C227.232 168.163 228.132 154.843 229.012 141.523C230.052 125.773 231.022 110.013 231.842 94.2434C232.152 88.2034 232.132 81.7934 229.402 76.2334C225.022 67.3134 216.462 62.2734 207.102 59.7634Z" fill="#FAC08E"/>
<path d="M35.2116 190.324C43.9716 193.364 53.5116 194.554 62.6116 196.184C102.842 203.404 143.262 209.804 183.722 215.544C187.862 216.134 198.602 218.784 203.242 215.644C203.442 215.334 203.682 215.024 204.032 214.734C204.242 214.554 204.462 214.384 204.682 214.204C208.332 208.484 208.342 200.334 208.982 193.734C210.732 175.504 211.882 157.214 213.042 138.944C213.852 126.054 214.822 113.144 215.302 100.234C215.522 94.2635 215.842 86.9435 211.282 82.3435C204.372 75.3635 192.962 73.9735 183.752 72.5735C162.592 69.3635 141.362 66.5435 120.232 63.1235C110.872 61.6035 101.542 59.9935 92.2216 58.3035C90.9416 58.0735 89.6616 57.7735 88.3916 57.4435C79.5616 56.1535 70.7316 54.8835 61.8916 53.6835C55.0116 52.7435 47.4616 51.0135 40.5316 51.8035C32.7716 52.6935 33.5516 63.3835 32.9716 69.2335C31.9816 79.2535 30.9716 89.2635 30.0016 99.2835C28.9916 109.754 28.0116 120.224 27.1016 130.694C25.9216 144.174 23.8116 158.014 23.9216 171.544C23.9916 180.324 26.4116 187.264 35.2116 190.324ZM34.5816 127.894C35.4416 118.274 36.3516 108.654 37.3116 99.0335C38.2516 89.5935 38.3816 79.6135 40.4816 70.3435C42.0016 63.6535 45.9516 59.6435 53.0316 59.4435C60.1416 59.2335 67.4016 60.6535 74.4316 61.6335C84.0416 62.9735 93.6416 64.3635 103.242 65.8035C119.802 68.2735 136.502 70.5535 152.922 73.9935C162.202 75.3435 171.522 76.5935 180.752 78.2135C189.052 79.6735 199.232 81.8035 204.642 88.9835C211.342 97.8735 208.232 112.404 207.632 122.774C206.542 141.504 205.442 160.254 203.812 178.954C203.192 186.114 203.112 194.244 200.622 201.034C198.342 207.264 193.702 209.804 187.152 209.664C179.272 209.494 171.382 208.004 163.602 206.854C153.902 205.414 144.212 203.924 134.522 202.414C112.332 198.944 90.1416 195.394 68.0516 191.364C59.6016 189.824 49.9716 189.024 42.2816 184.934C35.3116 181.224 32.0516 174.654 31.7616 166.884C31.2716 154.014 33.4416 140.714 34.5816 127.894Z" fill="#FFE888"/>
<path d="M58.1316 166.033C63.6016 167.833 69.5516 168.523 75.2116 169.493C106.742 174.903 138.332 180.093 169.962 184.863C172.672 185.273 176.392 186.403 178.982 185.383C181.452 184.413 181.202 177.893 181.402 175.633C182.222 166.463 182.772 157.273 183.302 148.083C183.662 141.783 185.722 133.693 177.922 131.413C171.962 129.673 165.542 129.093 159.412 128.133C152.232 127.013 145.052 125.883 137.872 124.753C130.712 123.713 123.572 122.573 116.432 121.383C113.692 120.953 110.952 120.523 108.212 120.093C102.242 119.153 96.2916 118.143 90.3616 117.023C86.1716 116.333 81.9816 115.663 77.7916 115.023C73.5816 114.383 68.6716 113.563 64.8116 113.093C63.6116 112.943 59.3116 112.023 58.4916 113.503C57.4616 115.383 57.4516 117.733 57.2516 119.813C56.7916 124.413 56.3216 129.023 55.8716 133.623C55.3116 139.503 54.7916 145.393 54.3016 151.293C53.9016 156.203 51.9416 163.993 58.1316 166.033Z" fill="#FCA32D"/>
<path d="M202.442 132.513C199.922 150.283 197.002 167.993 194.192 185.713C193.672 189.003 193.472 192.593 192.032 195.633C189.742 200.483 184.172 200.583 179.562 200.133C172.142 199.413 164.742 198.233 157.372 197.163C137.762 194.323 118.192 191.203 98.6616 187.883C83.2516 185.263 67.6616 182.854 52.4916 179.034C50.1816 178.454 47.9116 177.833 45.8516 176.593C40.9116 173.633 40.2216 167.393 40.2716 162.193C40.3516 154.343 40.5516 146.494 40.7216 138.644C40.9216 129.124 41.1416 119.603 41.3416 110.083C41.3716 108.593 41.3716 107.083 41.3616 105.583C40.4116 115.313 39.4916 125.044 38.6616 134.784C38.0516 141.934 37.4516 149.093 36.8816 156.253C36.4516 161.583 35.6516 167.443 37.3916 172.633C40.3916 181.593 50.2816 183.293 58.4616 184.873C79.6516 188.973 100.982 192.423 122.292 195.813C140.732 198.743 159.202 201.993 177.742 204.223C185.152 205.113 194.392 207.263 196.662 198.093C198.522 190.573 198.902 182.603 199.522 174.903C200.662 160.803 201.592 146.663 202.442 132.513Z" fill="#EAC9B7"/>
<path d="M47.3318 160.054C47.8518 162.244 48.9418 163.994 50.4018 165.414C48.7518 162.274 49.0518 158.334 49.3318 154.914C50.2118 144.034 51.2218 133.174 52.3118 122.324C53.0918 114.564 53.5418 107.174 63.2718 108.234C67.5218 108.704 71.7618 109.394 75.9918 110.044C92.6918 112.604 109.372 115.254 126.052 117.924C135.262 119.404 144.572 120.744 153.742 122.604C158.002 123.274 162.262 123.954 166.532 124.614C173.342 125.674 183.082 126.284 186.812 132.324C186.562 131.374 186.262 130.444 185.842 129.544C183.992 125.504 179.012 123.864 175.052 122.914C167.972 121.214 160.522 120.944 153.332 119.714C136.142 116.774 118.942 113.914 101.732 111.084C93.4218 109.724 85.1118 108.364 76.7918 107.074C74.1418 106.664 71.5018 106.254 68.8518 105.884C65.0218 105.344 60.9118 104.534 57.0718 105.404C50.0418 106.994 50.0918 116.794 49.3918 122.484C48.2418 131.924 47.2618 141.424 46.9418 150.924C46.8318 153.904 46.6318 157.124 47.3318 160.054Z" fill="#EAC9B7"/>
<path d="M170.902 88.0434C167.032 84.9834 161.042 85.6134 158.192 89.7834C155.102 94.3134 156.342 101.563 161.992 103.363C162.512 103.533 163.152 103.643 163.862 103.713C160.112 102.323 157.372 98.5634 157.962 94.3334C158.462 90.8134 162.132 87.4034 165.632 87.7134C168.772 87.1034 172.952 90.8334 173.922 93.5034C174.212 94.3134 174.352 95.1534 174.382 95.9834C174.712 93.0634 173.482 90.0934 170.902 88.0434Z" fill="#EAC9B7"/>
<path d="M149.062 84.3735C145.192 81.3135 139.202 81.9435 136.352 86.1135C133.262 90.6435 134.502 97.8935 140.152 99.6935C140.562 99.8235 141.042 99.9235 141.572 99.9935C137.912 98.5535 135.282 94.8435 135.862 90.6935C136.362 87.1735 140.032 83.7635 143.532 84.0735C146.672 83.4635 150.852 87.1935 151.822 89.8635C152.302 91.1835 152.392 92.5935 152.182 93.9435C153.292 90.5335 152.132 86.8035 149.062 84.3735Z" fill="#EAC9B7"/>
<path d="M193.152 91.4633C189.282 88.4033 183.292 89.0333 180.442 93.2033C177.352 97.7333 178.592 104.983 184.242 106.783C184.492 106.863 184.782 106.933 185.092 106.993C181.792 105.383 179.502 101.873 180.052 97.9833C180.552 94.4633 184.222 91.0533 187.722 91.3633C190.862 90.7433 195.042 94.4833 196.012 97.1533C196.392 98.1933 196.522 99.2933 196.462 100.373C197.212 97.1433 196.022 93.7333 193.152 91.4633Z" fill="#EAC9B7"/>
<path d="M191.552 98.5734C191.062 99.6634 189.982 100.483 188.902 100.873C186.702 101.683 185.412 100.223 184.612 98.5234C184.582 98.7634 184.572 99.0134 184.592 99.2934C184.772 101.543 187.282 103.973 189.682 103.083C191.722 102.343 192.252 100.293 191.552 98.5734Z" fill="#FF6C9A"/>
<path d="M182.812 135.263C181.972 133.533 180.472 132.163 177.922 131.413C171.962 129.673 165.542 129.093 159.412 128.133C152.232 127.013 145.052 125.883 137.872 124.753C130.712 123.713 123.572 122.573 116.432 121.383C113.692 120.953 110.952 120.523 108.212 120.093C102.242 119.153 96.2919 118.143 90.3619 117.023C86.1719 116.333 81.9819 115.663 77.7919 115.023C73.5819 114.383 68.6719 113.563 64.8119 113.093C63.6119 112.943 59.3119 112.023 58.4919 113.503C57.4619 115.383 57.4519 117.733 57.2519 119.813C56.7919 124.413 56.3219 129.023 55.8719 133.623C55.3119 139.503 54.7919 145.393 54.3019 151.293C53.9219 155.943 52.1619 163.173 57.2219 165.663C57.3619 161.933 57.7119 158.183 57.9719 154.513C58.4519 147.713 59.0519 140.913 59.8019 134.143C60.1419 131.113 60.5219 128.093 60.9919 125.083C61.3919 122.463 61.7519 118.813 64.3119 117.363C65.8719 116.473 67.9319 117.053 69.6219 117.323C79.3519 118.873 89.0819 120.413 98.8219 121.953C126.822 126.373 154.812 130.833 182.812 135.263Z" fill="#F2853B"/>
<path d="M35.2119 190.324C43.9719 193.364 53.5119 194.554 62.6119 196.184C102.842 203.404 143.262 209.804 183.722 215.544C187.862 216.134 198.602 218.784 203.242 215.644C203.442 215.334 203.682 215.024 204.032 214.734C204.242 214.554 204.462 214.384 204.682 214.204C206.302 211.664 207.212 208.634 207.772 205.474C207.472 205.984 207.162 206.494 206.822 206.974C202.562 213.074 194.542 213.634 187.742 213.434C180.812 213.224 173.922 212.114 167.072 211.124C159.302 209.994 151.552 208.754 143.812 207.504C124.202 204.334 104.632 200.994 85.0719 197.504C70.2419 194.854 55.3319 192.344 40.6619 188.914C36.7619 188.004 33.1119 186.554 30.6319 183.264C28.1019 179.914 27.6619 175.364 27.4319 171.314C26.7419 159.214 27.3819 147.104 27.6519 135.004C27.7519 130.544 27.8219 126.094 27.9019 121.644C27.6319 124.664 27.3518 127.674 27.0918 130.694C25.9118 144.174 23.8019 158.014 23.9119 171.544C23.9919 180.324 26.4119 187.264 35.2119 190.324Z" fill="#F7C546"/>
<path d="M205.272 188.693C206.952 177.373 207.642 165.883 208.382 154.473C209.372 139.103 210.212 123.723 210.772 108.333C211.012 101.723 211.662 94.2031 207.922 88.3631C203.342 81.2131 193.332 78.5431 185.702 76.4331C180.362 74.9631 174.792 74.1831 169.332 73.2531C151.182 70.1731 132.972 67.4431 114.762 64.7331C99.6116 62.4731 84.4516 60.2131 69.2616 58.2131C62.6416 57.3431 54.3416 56.5331 48.4316 60.2531C49.4516 59.8931 50.5716 59.6431 51.7916 59.5231C53.3116 58.9831 54.9216 58.6331 56.5316 58.4331C63.5816 57.5831 70.9316 59.1431 77.9216 60.1231C85.9616 61.2431 93.9916 62.4031 102.022 63.5831C121.002 66.3631 139.972 69.2031 158.912 72.2631C165.702 73.3631 172.492 74.4631 179.242 75.7431C187.132 77.2331 195.432 79.4031 202.222 83.8231C208.812 88.1131 210.182 94.8631 210.192 102.263C210.202 116.023 209.112 129.843 208.312 143.573C207.582 156.153 206.832 168.743 205.472 181.273C205.072 184.903 203.962 199.703 199.432 203.593C199.152 204.073 198.852 204.533 198.532 204.963C203.142 203.263 204.732 192.333 205.272 188.693Z" fill="#F7C546"/>
<path d="M155.632 60.8734C159.882 61.5034 164.142 62.1334 168.392 62.7734C179.972 64.5134 192.402 65.3334 203.452 69.3834C210.442 71.9434 217.122 75.7534 220.372 82.7734C223.072 88.6034 222.972 95.2834 222.672 101.563C222.002 115.193 221.132 128.813 220.262 142.433C219.112 160.333 218.062 178.263 216.212 196.103C215.892 199.203 215.682 202.623 215.192 205.993C216.442 204.903 217.622 203.763 218.692 202.563C218.992 200.403 219.242 198.253 219.452 196.133C220.232 188.443 220.502 180.713 220.942 173.003C221.402 164.913 222.232 156.833 222.792 148.753C223.742 134.943 224.592 121.103 225.342 107.283C225.772 99.3634 226.242 91.0434 224.182 83.2934C219.522 65.7834 198.032 63.7734 183.202 61.1234C167.112 58.2434 150.922 55.9434 134.762 53.5034C118.862 51.1034 103.032 48.5634 87.0216 46.9134C80.0516 46.1934 73.0916 45.4434 66.1316 44.6634C63.0816 44.3234 59.9016 44.0934 56.8516 44.5034C55.7616 44.6534 54.6916 44.8534 53.6216 45.0734C54.3516 45.1734 55.0916 45.2734 55.8116 45.3634C74.0916 47.7534 92.3316 50.4834 110.562 53.2534C125.582 55.5234 140.732 57.7034 155.632 60.8734Z" fill="#E09F75"/>
<path d="M141.182 92.7334C140.832 92.4034 140.602 92.0134 140.432 91.6034C140.432 91.7434 140.412 91.8734 140.422 92.0234C140.602 94.2734 143.112 96.7134 145.512 95.8134C148.102 94.8534 148.262 91.8134 146.542 90.0034C146.642 91.3334 146.312 92.6334 145.052 93.4934C143.822 94.3334 142.132 93.6534 141.182 92.7334Z" fill="#7CEE8F"/>
<path d="M163.242 95.9632C162.932 95.5432 162.722 95.0632 162.592 94.5632C162.522 94.8832 162.472 95.2332 162.512 95.6532C162.692 97.9032 165.202 100.343 167.602 99.4532C169.922 98.5932 170.282 96.0632 169.102 94.2432C169.082 95.4432 168.722 96.5732 167.602 97.3332C166.012 98.4132 164.212 97.2832 163.242 95.9632Z" fill="#7DB0FF"/>
<path d="M189.032 107.924C194.572 107.944 197.752 101.974 196.012 97.1435C195.052 94.4635 190.862 90.7335 187.722 91.3535C184.232 91.0535 180.552 94.4535 180.052 97.9735C179.302 103.294 183.832 107.904 189.032 107.924ZM188.162 95.8235C188.942 96.0935 189.712 96.3935 190.362 96.9335C192.452 98.6735 192.442 102.074 189.692 103.094C187.292 103.984 184.782 101.554 184.602 99.3035C184.392 96.8235 186.242 96.1735 188.162 95.8235Z" fill="#823703"/>
<path d="M166.941 104.283C172.481 104.303 175.662 98.3334 173.922 93.5034C172.962 90.8234 168.772 87.0934 165.632 87.7134C162.142 87.4134 158.462 90.8134 157.962 94.3334C157.212 99.6534 161.741 104.263 166.941 104.283ZM166.072 92.1834C166.852 92.4534 167.622 92.7534 168.272 93.2934C170.362 95.0334 170.352 98.4234 167.602 99.4534C165.202 100.343 162.692 97.9134 162.512 95.6534C162.312 93.1834 164.152 92.5334 166.072 92.1834Z" fill="#823703"/>
<path d="M144.852 100.643C150.392 100.663 153.572 94.6933 151.832 89.8633C150.872 87.1833 146.682 83.4533 143.542 84.0733C140.052 83.7733 136.372 87.1733 135.872 90.6933C135.122 96.0233 139.652 100.623 144.852 100.643ZM143.982 88.5433C144.762 88.8133 145.532 89.1133 146.182 89.6533C148.272 91.4033 148.262 94.7833 145.512 95.8133C143.112 96.7033 140.602 94.2733 140.422 92.0233C140.222 89.5433 142.062 88.8933 143.982 88.5433Z" fill="#823703"/>
<path d="M45.2917 200.473C54.9517 202.363 64.6417 204.073 74.3417 205.753C96.8917 209.653 119.492 213.273 142.112 216.773C159.322 219.443 176.772 222.963 194.172 224.083C199.902 224.453 205.562 223.753 209.522 219.823C217.002 213.673 225.782 208.083 229.772 198.903C232.952 191.593 233.212 183.123 233.912 175.273C235.622 156.273 236.762 137.223 237.902 118.183C238.632 105.943 240.852 92.4134 238.452 80.2434C234.352 59.4534 213.432 52.6634 195.032 49.8634C183.992 48.1834 172.952 46.4934 161.902 44.8634C140.772 40.8334 119.442 37.8234 98.1717 34.7334C87.2417 33.1434 76.2817 31.4034 65.2817 30.2834C51.2317 28.8534 41.1918 39.4634 31.2118 47.7934C30.8818 48.0734 30.6417 48.3634 30.4517 48.6734C27.0517 52.7234 26.5017 59.3234 25.9517 64.1534C23.6517 84.4434 21.8717 104.823 20.0617 125.153C18.8517 138.713 17.7418 152.283 16.6518 165.853C15.9518 174.643 16.3517 184.093 22.4517 191.023C27.9617 197.283 37.5617 198.963 45.2917 200.473ZM68.3117 38.1434C79.2217 39.4534 90.0918 41.0734 100.962 42.6534C103.112 42.9634 105.272 43.2834 107.422 43.5934C108.402 43.8234 109.382 44.0434 110.372 44.2134C120.212 45.9634 130.062 47.6234 139.932 49.1834C151.322 50.9934 162.752 52.5434 174.162 54.2334C185.112 55.8534 196.412 56.8934 207.112 59.7634C216.472 62.2734 225.032 67.3134 229.402 76.2234C232.132 81.7834 232.152 88.2034 231.842 94.2334C231.032 110.003 230.062 125.763 229.012 141.513C228.132 154.823 227.232 168.153 225.892 181.433C225.282 187.463 224.622 193.563 221.442 198.863C219.852 201.513 217.632 203.843 215.182 205.983C215.672 202.613 215.882 199.193 216.202 196.093C218.052 178.253 219.112 160.313 220.252 142.423C221.122 128.803 221.992 115.183 222.662 101.553C222.972 95.2734 223.062 88.5934 220.362 82.7634C217.112 75.7434 210.432 71.9434 203.442 69.3734C192.402 65.3234 179.962 64.5034 168.382 62.7634C164.132 62.1234 159.872 61.4934 155.622 60.8634C140.722 57.6934 125.572 55.5134 110.552 53.2334C92.3218 50.4634 74.0817 47.7334 55.8017 45.3434C52.9617 44.9734 50.0417 44.5234 47.1117 44.3034C49.5317 42.4534 52.0417 40.7334 54.7017 39.3034C58.9617 37.0334 63.7117 37.5934 68.3117 38.1434ZM27.0917 130.703C28.0017 120.223 28.9817 109.753 29.9917 99.2934C30.9617 89.2734 31.9718 79.2634 32.9618 69.2434C33.5418 63.3934 32.7517 52.7034 40.5217 51.8134C47.4417 51.0234 55.0017 52.7534 61.8817 53.6934C70.7217 54.8934 79.5517 56.1634 88.3817 57.4534C89.6517 57.7834 90.9318 58.0834 92.2118 58.3134C101.542 60.0034 110.872 61.6234 120.222 63.1334C141.342 66.5534 162.582 69.3734 183.742 72.5834C192.962 73.9834 204.362 75.3734 211.272 82.3534C215.832 86.9534 215.512 94.2734 215.292 100.243C214.812 113.153 213.852 126.063 213.032 138.953C211.872 157.223 210.732 175.523 208.972 193.743C208.342 200.343 208.322 208.493 204.672 214.213C204.452 214.383 204.232 214.563 204.022 214.743C203.672 215.033 203.432 215.333 203.232 215.653C198.592 218.793 187.842 216.133 183.712 215.553C143.242 209.813 102.822 203.423 62.6017 196.193C53.5017 194.563 43.9617 193.373 35.2017 190.333C26.3917 187.273 23.9718 180.333 23.9018 171.563C23.7918 158.023 25.9117 144.173 27.0917 130.703Z" fill="#823703"/>
<path d="M42.2716 184.923C49.9516 189.013 59.5916 189.813 68.0416 191.353C90.1416 195.383 112.322 198.933 134.512 202.403C144.202 203.923 153.892 205.403 163.592 206.843C171.382 208.003 179.262 209.483 187.142 209.653C193.692 209.793 198.332 207.253 200.612 201.023C203.102 194.233 203.182 186.103 203.802 178.943C205.432 160.243 206.532 141.503 207.622 122.763C208.222 112.383 211.342 97.8632 204.632 88.9732C199.222 81.7932 189.052 79.6632 180.742 78.2032C171.512 76.5732 162.192 75.3332 152.912 73.9832C136.492 70.5432 119.792 68.2632 103.232 65.7932C93.6316 64.3632 84.0316 62.9632 74.4216 61.6232C67.3916 60.6432 60.1316 59.2332 53.0216 59.4332C45.9416 59.6332 41.9916 63.6532 40.4716 70.3332C38.3716 79.5932 38.2416 89.5832 37.3016 99.0232C36.3416 108.643 35.4316 118.253 34.5716 127.883C33.4316 140.703 31.2616 154.003 31.7416 166.863C32.0416 174.653 35.3016 181.223 42.2716 184.923ZM36.8716 156.253C37.4416 149.093 38.0416 141.943 38.6516 134.783C40.0416 118.643 41.6416 102.533 43.2516 86.4132C43.8116 80.8432 42.8816 69.0932 48.1316 65.3832C52.7416 62.1332 61.1116 64.5332 66.3216 65.2132C75.4016 66.3932 84.4716 67.7132 93.5216 69.0832C95.8016 69.6132 98.0816 70.1432 100.372 70.5432C110.312 72.3032 120.282 73.8432 130.272 75.3132C141.232 76.9332 152.202 78.5532 163.162 80.1832C173.572 81.7432 184.892 82.3932 194.542 86.8632C207.172 92.7232 203.872 107.793 203.222 119.153C202.162 137.743 201.022 156.343 199.522 174.903C198.902 182.603 198.522 190.573 196.662 198.093C194.392 207.263 185.142 205.113 177.742 204.223C159.202 201.993 140.732 198.743 122.292 195.813C100.972 192.423 79.6516 188.973 58.4616 184.873C50.2816 183.293 40.3916 181.593 37.3916 172.633C35.6516 167.443 36.4416 161.583 36.8716 156.253Z" fill="#823703"/>
<path d="M61.7617 171.773C93.0317 177.783 124.622 182.403 156.072 187.363C160.882 188.123 165.692 188.893 170.512 189.593C177.362 190.593 183.462 190.993 185.122 183.073C186.842 174.883 186.802 166.093 187.332 157.773C187.762 151.083 188.652 144.173 188.302 137.463C187.742 126.523 174.902 125.913 166.522 124.603C162.262 123.943 158.002 123.263 153.732 122.593C144.552 120.733 135.242 119.393 126.042 117.913C109.362 115.233 92.6817 112.593 75.9817 110.033C71.7517 109.383 67.5217 108.693 63.2617 108.223C53.5217 107.153 53.0717 114.553 52.3017 122.313C51.2117 133.173 50.2017 144.033 49.3217 154.903C49.0017 158.903 48.6317 163.623 51.4117 166.933C54.0117 170.033 57.9617 171.043 61.7617 171.773ZM54.3017 151.283C54.7817 145.393 55.3017 139.503 55.8717 133.613C56.3117 129.013 56.7917 124.403 57.2517 119.803C57.4617 117.723 57.4617 115.373 58.4917 113.493C59.3017 112.013 63.6017 112.933 64.8117 113.083C68.6717 113.553 73.5817 114.373 77.7917 115.013C81.9817 115.653 86.1717 116.333 90.3617 117.013C96.2917 118.133 102.252 119.143 108.212 120.083C110.952 120.513 113.692 120.943 116.432 121.373C123.572 122.553 130.722 123.703 137.872 124.743C145.052 125.873 152.232 127.003 159.412 128.123C165.542 129.083 171.962 129.663 177.922 131.403C185.722 133.683 183.662 141.763 183.302 148.073C182.772 157.263 182.222 166.453 181.402 175.623C181.202 177.873 181.452 184.403 178.982 185.373C176.392 186.393 172.672 185.263 169.962 184.853C138.332 180.083 106.742 174.903 75.2117 169.483C69.5517 168.513 63.6017 167.833 58.1317 166.023C51.9417 163.993 53.9017 156.203 54.3017 151.283Z" fill="#823703"/>
<path d="M76.4316 155.184C77.9316 152.174 79.4116 149.154 80.8716 146.114C81.9016 149.474 82.7415 152.884 83.6315 156.334C84.5415 159.864 88.9416 159.194 90.1216 156.334C93.3916 148.394 96.3715 140.284 98.5015 131.964C99.4915 128.084 94.0416 126.784 92.6416 130.344C90.7716 135.094 89.1116 139.914 87.3916 144.714C86.4516 141.734 85.3916 138.794 84.1016 135.874C83.1316 133.684 79.3615 133.724 78.3815 135.874C77.2115 138.444 75.9716 140.974 74.7016 143.494C73.4716 137.854 72.2915 132.204 70.7515 126.654C69.9415 123.744 65.1516 124.234 65.3816 127.384C66.0416 136.424 67.9516 145.574 70.1516 154.354C70.8216 157.144 75.0916 157.884 76.4316 155.184Z" fill="#823703"/>
<path d="M114.672 161.483C116.172 158.473 117.652 155.453 119.112 152.413C120.142 155.773 120.982 159.183 121.872 162.633C122.782 166.163 127.182 165.493 128.362 162.633C131.632 154.693 134.612 146.583 136.742 138.263C137.732 134.383 132.282 133.083 130.882 136.643C129.012 141.393 127.352 146.213 125.632 151.003C124.692 148.023 123.632 145.083 122.342 142.163C121.372 139.973 117.602 140.013 116.622 142.163C115.452 144.733 114.212 147.263 112.942 149.783C111.712 144.143 110.532 138.493 108.992 132.943C108.182 130.033 103.392 130.523 103.622 133.673C104.282 142.713 106.192 151.863 108.382 160.643C109.062 163.443 113.332 164.183 114.672 161.483Z" fill="#823703"/>
<path d="M152.912 167.783C154.412 164.773 155.892 161.753 157.352 158.713C158.382 162.073 159.222 165.483 160.112 168.933C161.022 172.463 165.422 171.793 166.602 168.933C169.872 160.993 172.852 152.883 174.982 144.563C175.972 140.683 170.522 139.383 169.122 142.943C167.252 147.693 165.592 152.513 163.872 157.303C162.932 154.323 161.872 151.383 160.582 148.463C159.612 146.273 155.842 146.313 154.862 148.463C153.692 151.033 152.452 153.563 151.182 156.083C149.952 150.443 148.772 144.793 147.232 139.243C146.422 136.333 141.632 136.823 141.862 139.973C142.522 149.013 144.432 158.163 146.622 166.943C147.302 169.743 151.572 170.483 152.912 167.783Z" fill="#823703"/>
<path d="M68.4116 69.5434C71.6816 70.0734 74.8715 70.5134 78.1915 70.2634C78.3615 70.2534 78.4016 70.0134 78.2316 69.9534C75.1416 68.9634 72.0116 68.5734 68.8016 68.1034C65.7316 67.6634 62.2316 66.6934 59.1316 67.0434C59.0216 67.0534 58.9516 67.2034 59.0716 67.2734C61.8016 68.7834 65.3816 69.0634 68.4116 69.5434Z" fill="#823703"/>
<path d="M80.7517 70.7935C81.3917 70.9035 81.8417 70.9935 82.4317 70.6935C82.5017 70.6635 82.5017 70.5635 82.4517 70.5135C81.8917 69.9335 81.2617 69.8835 80.5017 69.7835C80.3417 69.7635 79.0617 69.8435 79.3317 70.2835C79.6017 70.7035 80.3217 70.7135 80.7517 70.7935Z" fill="#823703"/>
<path d="M151.592 189.024C144.952 187.144 137.912 186.534 131.112 185.444C127.562 184.874 124.002 184.294 120.442 183.784C117.242 183.324 113.802 182.524 110.572 182.744C110.432 182.754 110.412 182.934 110.542 182.984C113.782 184.334 117.582 184.714 121.012 185.384C124.542 186.074 128.082 186.664 131.632 187.234C138.292 188.304 144.822 189.014 151.552 189.354C151.732 189.364 151.772 189.074 151.592 189.024Z" fill="#823703"/>
<path d="M154.512 189.063C153.972 188.983 153.382 188.863 152.922 189.223C152.892 189.243 152.892 189.293 152.912 189.313C153.202 189.773 153.762 189.873 154.262 189.953C155.002 190.083 155.542 190.113 156.282 189.913C156.372 189.893 156.382 189.773 156.312 189.723C155.702 189.323 155.222 189.173 154.512 189.063Z" fill="#823703"/>
</svg>
