<svg width="400" height="400" viewBox="0 0 400 400" fill="none" xmlns="http://www.w3.org/2000/svg">
<path d="M328.375 34.1211C360.62 56.898 384.117 92.1901 394.116 129.985C403.864 168.029 400.365 208.577 391.866 251.378C383.117 294.179 369.119 338.982 338.873 366.014C308.627 393.296 261.633 402.808 217.389 399.304C173.144 395.799 131.4 379.03 99.6546 352.498C67.6585 325.716 45.6615 288.923 26.9139 247.373C8.16634 205.824 -7.33165 159.269 3.66691 119.973C14.4155 80.4261 51.4107 48.1376 90.9053 27.6134C130.65 7.33934 172.645 -0.920436 214.139 0.0807472C255.634 1.08193 296.379 11.3441 328.375 34.1211Z" fill="#111318"/>
</svg>

